<?xml version="1.0" encoding="UTF-8" standalone="no"?>
<svg width="147px" height="131px" viewBox="0 0 147 131" version="1.1" xmlns="http://www.w3.org/2000/svg" xmlns:xlink="http://www.w3.org/1999/xlink" xmlns:sketch="http://www.bohemiancoding.com/sketch/ns">
    <!-- Generator: Sketch 3.0.3 (7891) - http://www.bohemiancoding.com/sketch -->
    <title>Header</title>
    <desc>Created with Sketch.</desc>
    <defs></defs>
    <g stroke="none" stroke-width="1" fill="none" fill-rule="evenodd" sketch:type="MSPage">
        <g sketch:type="MSArtboardGroup" transform="translate(-438.000000, -214.000000)">
            <g sketch:type="MSLayerGroup" transform="translate(439.000000, 215.000000)">
                <g sketch:type="MSShapeGroup">
                    <path d="M31.9058739,-0.315482517 C27.0719086,-0.555577368 22.4744521,0.2379276 18.3244903,1.90326635 C14.1064685,3.59584991 10.3937926,6.17388966 7.39915032,9.43986075 C4.38579147,12.7245626 2.13470522,16.6716539 0.843265714,21.0495536 C-0.441367787,25.4070197 -0.761250036,30.1408047 0.0486645949,35.0125166 L8.74503787,87.2987045 C9.40692188,91.2730405 10.9740046,94.8250821 13.2148818,97.8288219 C15.4064156,100.771261 18.2326093,103.175615 21.4688648,104.949933 C24.6285527,106.681681 28.1778845,107.810638 31.9177844,108.256771 C35.5709078,108.692688 39.4145992,108.478135 43.2787088,107.541595 L50.3246257,105.833686 C50.7849821,105.900605 51.3862216,105.732004 51.3214342,105.982089 C50.6282038,108.658014 49.8727229,111.28682 49.0588957,113.867205 C48.1724135,116.678528 47.2161698,119.435362 46.1935675,122.132598 C45.1726667,124.824725 44.0837059,127.46066 42.930088,130.0387 C46.4862257,127.351681 49.8007503,124.494382 52.8515422,121.500859 C55.8734085,118.536284 58.6519602,115.423564 61.1633762,112.191649 C63.6611801,108.978465 67.2294801,103.107957 67.8206469,102.105137 C68.4118137,101.102317 69.7435092,101.176107 69.7421589,101.125443 L124.795936,87.7737858 C127.092963,87.2169701 129.279392,86.1476114 131.273551,84.6985283 C133.248994,83.2630676 135.047481,81.4461796 136.590743,79.3653576 C138.127199,77.2930496 139.418638,74.9448879 140.381688,72.4332573 C141.346439,69.9148156 141.987905,67.2141742 142.212503,64.4386096 L145.067622,29.1702085 C145.324549,25.9978915 145.113563,22.9515816 144.501023,20.1470694 C143.879975,17.2982844 142.84376,14.6861887 141.46044,12.4453034 C140.051597,10.1618481 138.278632,8.2581173 136.218114,6.88566021 C134.121864,5.48084991 131.721046,4.63455813 129.10754,4.50514531 L31.9058739,-0.315482517 Z" fill="#FFFFFF"></path>
                    <path d="M125.4768,52.97035 C125.384245,53.1498847 125.283098,53.3247936 125.17336,53.4950772 C124.859192,53.9825796 124.463779,54.3834089 123.98711,54.6975772 C123.510441,55.0117454 122.925447,55.1688272 122.23211,55.1688272 C121.690441,55.1688272 121.137946,54.9846623 120.57461,54.6163272 C120.011274,54.2263252 119.626695,53.7171636 119.42086,53.0888272 C119.215026,52.4604907 119.11211,51.8538301 119.11211,51.2688272 C119.11211,51.095493 119.122943,50.8354956 119.14461,50.4888272 C119.166277,50.1421588 119.17711,49.719663 119.17711,49.2213272 L119.17711,45.6463272 C119.17711,45.472993 119.171694,45.2888281 119.16086,45.0938272 C119.150027,44.8988262 119.122944,44.7146614 119.07961,44.5413272 C119.057943,44.4546601 119.020027,44.357161 118.96586,44.2488272 C118.911693,44.1404933 118.88461,44.0646607 118.88461,44.0213272 C118.88461,43.9346601 118.938776,43.8642441 119.04711,43.8100772 C119.155444,43.7559102 119.27461,43.7179939 119.40461,43.6963272 C119.534611,43.6746604 119.659193,43.6638272 119.77836,43.6638272 L119.95711,43.6638272 C120.02211,43.6638272 120.173776,43.6692438 120.41211,43.6800772 C120.650445,43.6909105 120.899609,43.7288268 121.15961,43.7938272 C121.419611,43.8588275 121.652526,43.9617431 121.85836,44.1025772 C122.064195,44.2434112 122.16711,44.4438259 122.16711,44.7038272 C122.188777,44.7688275 122.150861,44.887993 122.05336,45.0613272 C121.95586,45.2346614 121.863777,45.5379917 121.77711,45.9713272 C121.755443,46.1446614 121.733777,46.3017431 121.71211,46.4425772 C121.690443,46.5834112 121.668777,46.740493 121.64711,46.9138272 C121.625443,47.0871614 121.603777,47.2984092 121.58211,47.5475772 C121.560443,47.7967451 121.538777,48.1163252 121.51711,48.5063272 L121.51711,50.4563272 C121.51711,50.8029956 121.527943,51.1550754 121.54961,51.5125772 C121.571277,51.8700789 121.620026,52.1950757 121.69586,52.4875772 C121.771694,52.7800786 121.896276,53.0184096 122.06961,53.2025772 C122.242944,53.3867447 122.470442,53.4788272 122.75211,53.4788272 C123.163779,53.4788272 123.488776,53.3596617 123.72711,53.1213272 C123.965445,52.8829926 124.14961,52.6771614 124.27961,52.5038272 C124.517945,52.1788255 124.70211,51.7725796 124.83211,51.2850772 C124.924536,50.9384798 125.011485,50.5836723 125.092959,50.2206493 C125.101981,49.4854653 125.182947,48.7406978 125.33586,47.9863272 C125.498361,47.1846565 125.698776,46.4154975 125.93711,45.6788272 C126.175445,44.9421568 126.446275,44.2813301 126.74961,43.6963272 C127.052945,43.1113242 127.345442,42.6563288 127.62711,42.3313272 C127.908778,42.0279923 128.222942,41.8167444 128.56961,41.6975772 C128.916279,41.5784099 129.230442,41.5188272 129.51211,41.5188272 C129.858779,41.5188272 130.205442,41.605493 130.55211,41.7788272 C130.898779,41.9521614 131.234609,42.1688259 131.55961,42.4288272 C131.884612,42.6888285 132.204192,42.9867421 132.51836,43.3225772 C132.832528,43.6584122 133.130442,43.9888255 133.41211,44.3138272 C133.628778,44.5521617 133.791276,44.9367412 133.89961,45.4675772 C134.007944,45.9984131 134.09461,46.5346578 134.15961,47.0763272 C134.202944,47.379662 134.235443,47.7046588 134.25711,48.0513272 C134.278777,48.3979956 134.28961,48.755492 134.28961,49.1238272 C134.614612,48.8638259 134.874609,48.5875786 135.06961,48.2950772 C135.264611,48.0025757 135.421693,47.7263285 135.54086,47.4663272 C135.660027,47.2063259 135.757526,46.9625783 135.83336,46.7350772 C135.909194,46.507576 135.990443,46.3288278 136.07711,46.1988272 C136.163777,46.0471597 136.315442,45.9713272 136.53211,45.9713272 C136.640444,45.9713272 136.716277,46.0363265 136.75961,46.1663272 C136.802944,46.2963278 136.82461,46.4046601 136.82461,46.4913272 C136.802943,47.1629972 136.656695,47.7642412 136.38586,48.2950772 C136.115025,48.8259131 135.827945,49.2863252 135.52461,49.6763272 C135.351276,49.9146617 135.161695,50.1313262 134.95586,50.3263272 C134.750026,50.5213281 134.538778,50.705493 134.32211,50.8788272 C134.300443,51.2471623 134.284194,51.5017431 134.27336,51.6425772 C134.262527,51.7834112 134.246277,51.8971601 134.22461,51.9838272 C134.181277,52.3088288 134.072944,52.7204913 133.89961,53.2188272 C133.726276,53.717163 133.482528,54.2046581 133.16836,54.6813272 C132.854192,55.1579962 132.475029,55.5642421 132.03086,55.9000772 C131.586691,56.2359122 131.072113,56.4038272 130.48711,56.4038272 C130.292109,56.4038272 130.070028,56.3821607 129.82086,56.3388272 C129.571692,56.2954936 129.317111,56.2359109 129.05711,56.1600772 C128.797109,56.0842434 128.547945,55.9975776 128.30961,55.9000772 C128.071276,55.8025767 127.865444,55.699661 127.69211,55.5913272 C127.150441,55.2879923 126.706279,54.9304959 126.35961,54.5188272 C126.012942,54.1071584 125.747528,53.6684128 125.56336,53.2025772 C125.532874,53.1254648 125.50402,53.0480557 125.4768,52.97035 L125.4768,52.97035 Z M106.000344,52.0434932 C105.989225,52.0825231 105.977731,52.1222177 105.96586,52.1625772 C105.803359,52.7150799 105.565028,53.2567412 105.25086,53.7875772 C104.936692,54.3184131 104.535863,54.7842418 104.04836,55.1850772 C103.560858,55.5859125 102.970447,55.7863272 102.27711,55.7863272 C101.60544,55.7863272 101.069196,55.5913291 100.66836,55.2013272 C100.267525,54.8113252 99.9641945,54.2750806 99.7583602,53.5925772 C99.5525258,52.9100737 99.4225271,52.0921653 99.3683602,51.1388272 C99.3141932,50.1854891 99.2871102,49.1454995 99.2871102,48.0188272 L99.2871102,47.2875772 C99.2871102,46.9950757 99.2979434,46.7404949 99.3196102,46.5238272 C99.0596089,47.0004962 98.7996115,47.6017402 98.5396102,48.3275772 C98.2796089,49.0534141 98.0466945,49.8279897 97.8408602,50.6513272 C97.6350258,51.4746646 97.4671108,52.3142395 97.3371102,53.1700772 C97.2071095,54.0259148 97.1312769,54.83299 97.1096102,55.5913272 C96.8929424,55.6346607 96.6600281,55.6888268 96.4108602,55.7538272 C96.1616923,55.8188275 95.8746118,55.8513272 95.5496102,55.8513272 C95.4196095,55.8513272 95.2679444,55.8404939 95.0946102,55.8188272 C94.921276,55.7971604 94.7479444,55.7538275 94.5746102,55.6888272 C94.401276,55.6238268 94.2550274,55.5317444 94.1358602,55.4125772 C94.0166929,55.2934099 93.9571102,55.1363281 93.9571102,54.9413272 C93.9571102,54.8979936 93.9950265,54.8004946 94.0708602,54.6488272 C94.1466939,54.4971597 94.1846102,54.1938294 94.1846102,53.7388272 L94.1846102,35.0513272 C94.1846102,34.7479923 94.1466939,34.542161 94.0708602,34.4338272 C93.9950265,34.3254933 93.9571102,34.1954946 93.9571102,34.0438272 C93.9571102,33.9571601 94.0329427,33.8867441 94.1846102,33.8325772 C94.3362776,33.7784102 94.5096092,33.7350773 94.7046102,33.7025772 C94.8996111,33.670077 95.1000258,33.6484105 95.3058602,33.6375772 C95.5116945,33.6267438 95.6796095,33.6213272 95.8096102,33.6213272 C96.3729463,33.6213272 96.9471072,33.7404926 97.5321102,33.9788272 C97.4237763,34.5638301 97.3208607,35.3384057 97.2233602,36.3025772 C97.1258597,37.2667486 97.0337773,38.2634053 96.9471102,39.2925772 C96.8604431,40.321749 96.7954437,41.3075724 96.7521102,42.2500772 C96.7087766,43.1925819 96.6871102,43.9238246 96.6871102,44.4438272 L96.6871102,44.6875772 C96.6871102,44.7850776 96.6816936,45.0342418 96.6708602,45.4350772 C96.6600268,45.8359125 96.6491936,46.4588229 96.6383602,47.3038272 C96.6275268,48.1488314 96.6112769,49.3404861 96.5896102,50.8788272 C96.5896102,50.8571604 96.6383597,50.6513291 96.7358602,50.2613272 C96.8333607,49.8713252 96.9579427,49.3838301 97.1096102,48.7988272 C97.2612776,48.2138242 97.4400258,47.5854972 97.6458602,46.9138272 C97.8516945,46.2421571 98.068359,45.6192467 98.2958602,45.0450772 C98.5233613,44.4709076 98.7562756,43.9942457 98.9946102,43.6150772 C99.2329447,43.2359086 99.4604424,43.0463272 99.6771102,43.0463272 C99.9154447,43.0463272 100.245858,43.0950767 100.66836,43.1925772 C101.090862,43.2900776 101.356276,43.4579926 101.46461,43.6963272 C101.551277,43.9563285 101.64336,44.1404933 101.74086,44.2488272 C101.838361,44.357161 101.925026,44.4438268 102.00086,44.5088272 C102.076694,44.5738275 102.141693,44.6388268 102.19586,44.7038272 C102.250027,44.7688275 102.27711,44.8663265 102.27711,44.9963272 C102.255443,45.0613275 102.206694,45.277992 102.13086,45.6463272 C102.055026,46.0146623 101.979194,46.4750744 101.90336,47.0275772 C101.827526,47.5800799 101.75711,48.1867405 101.69211,48.8475772 C101.62711,49.5084138 101.59461,50.1638239 101.59461,50.8138272 C101.59461,51.6804982 101.670443,52.4279907 101.82211,53.0563272 C101.973778,53.6846636 102.266275,53.9988272 102.69961,53.9988272 C103.132946,53.9988272 103.490442,53.8688285 103.77211,53.6088272 C104.053778,53.3488259 104.286693,53.0238291 104.47086,52.6338272 C104.655028,52.2438252 104.79586,51.826746 104.89336,51.3825772 C104.990861,50.9384083 105.07211,50.5429956 105.13711,50.1963272 C105.245444,49.7413249 105.407942,49.5138272 105.62461,49.5138272 C105.709881,49.5138272 105.786138,49.5249209 105.853381,49.5471084 C105.87504,48.4626787 105.907116,47.3574289 105.94961,46.2313272 C105.992944,45.0829881 106.036277,44.021332 106.07961,43.0463272 C106.07961,42.872993 105.906279,42.7538275 105.55961,42.6888272 C105.212942,42.6238268 104.822946,42.5588275 104.38961,42.4938272 C103.956275,42.4288268 103.566279,42.3259112 103.21961,42.1850772 C102.872942,42.0442431 102.69961,41.8113288 102.69961,41.4863272 C102.69961,41.2046591 102.981274,41.0421607 103.54461,40.9988272 C104.107946,40.9554936 104.942105,40.9338272 106.04711,40.9338272 C106.133777,40.9338272 106.19336,40.8038285 106.22586,40.5438272 C106.25836,40.2838259 106.280027,39.9534125 106.29086,39.5525772 C106.301694,39.1517418 106.312527,38.7238294 106.32336,38.2688272 C106.334194,37.8138249 106.350443,37.3859125 106.37211,36.9850772 C106.393777,36.5842418 106.431693,36.2538285 106.48586,35.9938272 C106.540027,35.7338259 106.610443,35.6038272 106.69711,35.6038272 C106.805444,35.6038272 107.000442,35.6254936 107.28211,35.6688272 C107.563778,35.7121607 107.856275,35.7717434 108.15961,35.8475772 C108.462945,35.9234109 108.728359,36.0154933 108.95586,36.1238272 C109.183361,36.232161 109.29711,36.3513265 109.29711,36.4813272 L108.93961,40.7063272 C108.93961,40.8363278 109.053359,40.9284102 109.28086,40.9825772 C109.508361,41.0367441 109.800858,41.0692438 110.15836,41.0800772 C110.515862,41.0909105 110.895025,41.0963272 111.29586,41.0963272 C111.696696,41.0963272 112.075858,41.1288268 112.43336,41.1938272 C112.790862,41.2588275 113.083359,41.3617431 113.31086,41.5025772 C113.538361,41.6434112 113.65211,41.8546591 113.65211,42.1363272 C113.65211,42.1796607 113.630444,42.2500767 113.58711,42.3475772 C113.543777,42.4450776 113.48961,42.4938272 113.42461,42.4938272 C113.381277,42.4938272 113.321694,42.4613275 113.24586,42.3963272 C113.170026,42.3313268 112.969612,42.2988272 112.64461,42.2988272 C112.557943,42.2988272 112.319612,42.3096604 111.92961,42.3313272 C111.539608,42.3529939 111.127946,42.3854936 110.69461,42.4288272 C110.261275,42.4721607 109.865862,42.5209102 109.50836,42.5750772 C109.150858,42.6292441 108.950444,42.6996601 108.90711,42.7863272 C108.885443,42.8296607 108.85836,43.0842415 108.82586,43.5500772 C108.79336,44.0159128 108.76086,44.62799 108.72836,45.3863272 C108.69586,46.1446643 108.668777,47.0167389 108.64711,48.0025772 C108.625443,48.9884154 108.61461,50.0229884 108.61461,51.1063272 C108.61461,51.5179959 108.636277,51.9188252 108.67961,52.3088272 C108.722944,52.6988291 108.787943,53.0509089 108.87461,53.3650772 C108.961277,53.6792454 109.075026,53.9338262 109.21586,54.1288272 C109.356694,54.3238281 109.524609,54.4213272 109.71961,54.4213272 C110.001278,54.4213272 110.261276,54.3021617 110.49961,54.0638272 C110.737945,53.8254926 110.954609,53.5004959 111.14961,53.0888272 C111.344611,52.6771584 111.517943,52.2113298 111.66961,51.6913272 C111.821278,51.1713246 111.951276,50.6404965 112.05961,50.0988272 C112.12461,49.7738255 112.200443,49.5409112 112.28711,49.4000772 C112.373777,49.2592431 112.503776,49.1888272 112.67711,49.1888272 C112.828778,49.1888272 112.964193,49.2375767 113.08336,49.3350772 C113.202527,49.4325776 113.26211,49.6546588 113.26211,50.0013272 C113.26211,50.2179949 113.251277,50.3588268 113.22961,50.4238272 C113.16461,50.8138291 113.040028,51.3500737 112.85586,52.0325772 C112.671693,52.7150806 112.422528,53.3867405 112.10836,54.0475772 C111.794192,54.7084138 111.409612,55.2879913 110.95461,55.7863272 C110.499608,56.284663 109.96878,56.5338272 109.36211,56.5338272 C108.777107,56.5338272 108.267946,56.3659122 107.83461,56.0300772 C107.401275,55.6942421 107.038362,55.2284135 106.74586,54.6325772 C106.453359,54.0367408 106.231278,53.3325812 106.07961,52.5200772 C106.050369,52.3634302 106.023947,52.2045689 106.000344,52.0434932 L106.000344,52.0434932 Z M82.1716265,49.1349706 C82.1031557,49.213174 82.0558171,49.3177927 82.0296102,49.4488272 L81.9646102,49.7738272 C81.8562763,50.2938298 81.7371108,50.7975747 81.6071102,51.2850772 C81.4771095,51.7725796 81.2929447,52.1788255 81.0546102,52.5038272 C80.9246095,52.6771614 80.7404447,52.8829926 80.5021102,53.1213272 C80.2637756,53.3596617 79.9387789,53.4788272 79.5271102,53.4788272 C79.2454421,53.4788272 79.0179444,53.3867447 78.8446102,53.2025772 C78.671276,53.0184096 78.5466939,52.7800786 78.4708602,52.4875772 C78.3950265,52.1950757 78.3462769,51.8700789 78.3246102,51.5125772 C78.3029434,51.1550754 78.2921102,50.8029956 78.2921102,50.4563272 L78.2921102,48.5063272 C78.3137769,48.1163252 78.3354434,47.7967451 78.3571102,47.5475772 C78.3787769,47.2984092 78.4004434,47.0871614 78.4221102,46.9138272 C78.4437769,46.740493 78.4654434,46.5834112 78.4871102,46.4425772 C78.5087769,46.3017431 78.5304434,46.1446614 78.5521102,45.9713272 C78.6387773,45.5379917 78.7308597,45.2346614 78.8283602,45.0613272 C78.9258607,44.887993 78.9637769,44.7688275 78.9421102,44.7038272 C78.9421102,44.4438259 78.8391945,44.2434112 78.6333602,44.1025772 C78.4275258,43.9617431 78.1946115,43.8588275 77.9346102,43.7938272 C77.6746089,43.7288268 77.4254447,43.6909105 77.1871102,43.6800772 C76.9487756,43.6692438 76.7971105,43.6638272 76.7321102,43.6638272 L76.5533602,43.6638272 C76.4341929,43.6638272 76.3096108,43.6746604 76.1796102,43.6963272 C76.0496095,43.7179939 75.930444,43.7559102 75.8221102,43.8100772 C75.7137763,43.8642441 75.6596102,43.9346601 75.6596102,44.0213272 C75.6596102,44.0646607 75.6866932,44.1404933 75.7408602,44.2488272 C75.7950271,44.357161 75.8329434,44.4546601 75.8546102,44.5413272 C75.8979437,44.7146614 75.9250268,44.8988262 75.9358602,45.0938272 C75.9466936,45.2888281 75.9521102,45.472993 75.9521102,45.6463272 L75.9521102,49.2213272 C75.9521102,49.3454232 75.9514384,49.4648163 75.9500948,49.5795066 C75.9401094,49.5790536 75.9299479,49.5788272 75.9196102,49.5788272 C75.8329431,49.5788272 75.7408607,49.6059102 75.6433602,49.6600772 C75.5458597,49.7142441 75.4754437,49.8604926 75.4321102,50.0988272 C75.3887766,50.3588285 75.3075274,50.7596578 75.1883602,51.3013272 C75.0691929,51.8429965 74.9121111,52.3792412 74.7171102,52.9100772 C74.5221092,53.4409131 74.2946115,53.9067418 74.0346102,54.3075772 C73.7746089,54.7084125 73.4821118,54.9088272 73.1571102,54.9088272 C72.9621092,54.9088272 72.7996108,54.7679952 72.6696102,54.4863272 C72.5396095,54.2046591 72.4421105,53.8796623 72.3771102,53.5113272 C72.3121098,53.142992 72.2687769,52.7854956 72.2471102,52.4388272 C72.2254434,52.0921588 72.2146102,51.8538278 72.2146102,51.7238272 C72.2146102,50.098819 72.4096082,48.5388346 72.7996102,47.0438272 C72.7996102,47.0004936 72.8212766,46.9138278 72.8646102,46.7838272 C72.9079437,46.6538265 72.9621098,46.507578 73.0271102,46.3450772 C73.0921105,46.1825763 73.1462766,46.020078 73.1896102,45.8575772 C73.2329437,45.6950763 73.2546102,45.5704943 73.2546102,45.4838272 C73.2546102,45.2238259 73.1083616,45.0234112 72.8158602,44.8825772 C72.5233587,44.7417431 72.1821121,44.6388275 71.7921102,44.5738272 C71.4021082,44.5088268 71.0121121,44.4654939 70.6221102,44.4438272 C70.2321082,44.4221604 69.9504444,44.4004939 69.7771102,44.3788272 L69.6796102,44.3788272 C69.4846092,44.3354936 69.3546105,44.2975773 69.2896102,44.2650772 C69.2246098,44.232577 69.1921102,44.1404946 69.1921102,43.9888272 L69.1921102,43.7938272 L69.2246102,43.0788272 L69.2246102,42.9163272 C69.2246102,42.4396581 69.0404453,42.2013272 68.6721102,42.2013272 C68.5204427,42.2013272 68.3471111,42.2229936 68.1521102,42.2663272 C67.9571092,42.3096607 67.7729444,42.3746601 67.5996102,42.4613272 C67.426276,42.5479943 67.285444,42.6454933 67.1771102,42.7538272 C67.0687763,42.862161 67.0146102,42.9813265 67.0146102,43.1113272 L67.1121102,45.0288272 C67.1554437,45.332162 67.1771102,45.6138259 67.1771102,45.8738272 L67.1771102,46.6213272 L67.1771102,47.4663272 C67.1771102,47.6829949 67.1716936,47.8671597 67.1608602,48.0188272 C67.1500268,48.1704946 67.1446102,48.3004933 67.1446102,48.4088272 L67.1446102,48.6363272 C67.1229434,49.0263291 67.0904437,49.4704913 67.0471102,49.9688272 C67.0037766,50.467163 66.8954444,51.09549 66.7221102,51.8538272 C66.6787766,52.0271614 66.6571102,52.1571601 66.6571102,52.2438272 C66.6571102,52.4171614 66.6950265,52.5254936 66.7708602,52.5688272 C66.8466939,52.6121607 66.9279431,52.6338272 67.0146102,52.6338272 L67.0471102,52.6338272 C67.2637779,52.6338272 67.4533594,52.4875786 67.6158602,52.1950772 C67.778361,51.9025757 67.9191929,51.5125796 68.0383602,51.0250772 C68.1575274,50.5375747 68.2658597,49.974247 68.3633602,49.3350772 C68.4608607,48.6959073 68.5529431,48.029664 68.6396102,47.3363272 L68.7696102,46.2963272 C68.7912769,46.2096601 68.8346098,46.1338275 68.8996102,46.0688272 C68.9646105,46.0038268 69.1271089,45.9713272 69.3871102,45.9713272 C69.5387776,45.9713272 69.701276,45.9929936 69.8746102,46.0363272 C70.0479444,46.0796607 70.1346102,46.187993 70.1346102,46.3613272 C70.1129434,46.9246633 70.0696105,47.4934076 70.0046102,48.0675772 C69.9396098,48.6417467 69.9071102,49.210491 69.9071102,49.7738272 C69.9071102,50.272163 69.9396098,50.8950734 70.0046102,51.6425772 C70.0696105,52.3900809 70.2104424,53.1050737 70.4271102,53.7875772 C70.6437779,54.4700806 70.9579414,55.0550747 71.3696102,55.5425772 C71.7812789,56.0300796 72.3337734,56.2738272 73.0271102,56.2738272 C73.6771134,56.2738272 74.2133581,56.024663 74.6358602,55.5263272 C75.0583623,55.0279913 75.3941923,54.459247 75.6433602,53.8200772 C75.8126605,53.3857851 75.9469494,52.9665016 76.0462287,52.5622209 L76.0462287,52.5622209 C76.087915,52.7360315 76.1377921,52.9115668 76.1958602,53.0888272 C76.4016945,53.7171636 76.786274,54.2263252 77.3496102,54.6163272 C77.9129463,54.9846623 78.4654408,55.1688272 79.0071102,55.1688272 C79.700447,55.1688272 80.2854411,55.0117454 80.7621102,54.6975772 C81.2387792,54.3834089 81.6341919,53.9825796 81.9483602,53.4950772 C82.0595954,53.3224708 82.1620026,53.1451122 82.2555822,52.9630006 C82.25609,52.9670289 82.2565993,52.9710545 82.2571102,52.9750772 C82.3437773,53.6575806 82.500859,54.2479913 82.7283602,54.7463272 C82.9558613,55.244663 83.2700248,55.6346591 83.6708602,55.9163272 C84.0716955,56.1979952 84.5754405,56.3604936 85.1821102,56.4038272 C85.4204447,56.4038272 85.6046095,56.4363268 85.7346102,56.5013272 C85.8646108,56.5663275 86.016276,56.5988272 86.1896102,56.5988272 C86.5146118,56.5988272 86.8071089,56.4850783 87.0671102,56.2575772 C87.3271115,56.030076 87.5600258,55.764662 87.7658602,55.4613272 C87.9716945,55.1579923 88.1504427,54.8384122 88.3021102,54.5025772 C88.4537776,54.1667421 88.5837763,53.9013281 88.6921102,53.7063272 C88.6921102,54.1829962 88.6812769,54.6488249 88.6596102,55.1038272 C88.6379434,55.5588294 88.6054437,56.0138249 88.5621102,56.4688272 L88.5621102,56.5013272 C88.3237756,56.6746614 88.0475284,56.8967425 87.7333602,57.1675772 C87.4191919,57.4384118 87.1321115,57.7038259 86.8721102,57.9638272 C86.3737743,58.462163 85.9133623,59.0309073 85.4908602,59.6700772 C85.0683581,60.309247 84.705445,60.980907 84.4021102,61.6850772 C84.0987753,62.3892473 83.865861,63.1150734 83.7033602,63.8625772 C83.5408594,64.6100809 83.4596102,65.3413236 83.4596102,66.0563272 C83.4596102,66.7713307 83.6166919,67.340075 83.9308602,67.7625772 C84.2450284,68.1850793 84.6458577,68.5046594 85.1333602,68.7213272 C85.6208626,68.9379949 86.1625239,69.0734102 86.7583602,69.1275772 C87.3541965,69.1817441 87.9229408,69.2088272 88.4646102,69.2088272 C89.0929466,69.2088272 89.5858584,69.0084125 89.9433602,68.6075772 C90.300862,68.2067418 90.5771092,67.6759138 90.7721102,67.0150772 C90.9671111,66.3542405 91.0916932,65.606748 91.1458602,64.7725772 C91.2000271,63.9384063 91.2271102,63.0879982 91.2271102,62.2213272 L91.2271102,59.6538272 C91.2271102,58.7654894 91.2162769,58.0288301 91.1946102,57.4438272 L91.2271102,57.0538272 C91.2271102,56.9238265 91.2812763,56.8588272 91.3896102,56.8588272 L92.0396102,56.9238272 C92.2129444,56.9238272 92.3971092,56.8804943 92.5921102,56.7938272 C92.7871111,56.7071601 92.8846102,56.5554949 92.8846102,56.3388272 C92.8846102,56.1004926 92.7166952,55.9217444 92.3808602,55.8025772 C92.0450252,55.6834099 91.7796111,55.6238272 91.5846102,55.6238272 C91.5629434,55.6238272 91.5304437,55.6292438 91.4871102,55.6400772 C91.4437766,55.6509105 91.4004437,55.6563272 91.3571102,55.6563272 L91.2271102,55.6563272 C91.2054434,55.3529923 91.1946102,54.9684128 91.1946102,54.5025772 L91.1946102,53.3813272 C91.1946102,53.012992 91.2000268,52.5959128 91.2108602,52.1300772 C91.2216936,51.6642415 91.2379434,51.209246 91.2596102,50.7650772 C91.2812769,50.3209083 91.3137766,49.9092457 91.3571102,49.5300772 C91.4004437,49.1509086 91.4546098,48.8746614 91.5196102,48.7013272 C91.5412769,48.6579936 91.6008597,48.555078 91.6983602,48.3925772 C91.7958607,48.2300763 91.8446102,48.1271607 91.8446102,48.0838272 C91.8446102,47.910493 91.7796108,47.7967441 91.6496102,47.7425772 C91.5196095,47.6884102 91.373361,47.6396607 91.2108602,47.5963272 C91.0483594,47.5529936 90.9021108,47.4988275 90.7721102,47.4338272 C90.6421095,47.3688268 90.5771102,47.2496614 90.5771102,47.0763272 C90.5771102,46.6429917 90.6041932,46.2854952 90.6583602,46.0038272 C90.7125271,45.7221591 90.7396102,45.4079956 90.7396102,45.0613272 C90.7396102,44.5629913 90.6637776,44.1459122 90.5121102,43.8100772 C90.3604427,43.4742421 90.1546115,43.2034115 89.8946102,42.9975772 C89.6346089,42.7917428 89.3204453,42.6238278 88.9521102,42.4938272 C88.583775,42.3638265 88.1829457,42.2554943 87.7496102,42.1688272 C87.6629431,42.1471604 87.538361,42.0984109 87.3758602,42.0225772 C87.2133594,41.9467434 87.050861,41.8709109 86.8883602,41.7950772 C86.7258594,41.7192434 86.5741942,41.6488275 86.4333602,41.5838272 C86.2925261,41.5188268 86.1787773,41.4863272 86.0921102,41.4863272 C85.3121063,41.4863272 84.6675294,41.7734076 84.1583602,42.3475772 C83.649191,42.9217467 83.242945,43.658406 82.9396102,44.5575772 C82.6362753,45.4567483 82.4250274,46.4479884 82.3058602,47.5313272 C82.2461624,48.0740338 82.2014179,48.6085803 82.1716265,49.1349706 L82.1716265,49.1349706 Z M22.7821102,56.3388272 C22.7821102,56.5554949 22.6846111,56.7071601 22.4896102,56.7938272 C22.2946092,56.8804943 22.1104444,56.9238272 21.9371102,56.9238272 L21.2871102,56.8588272 C21.1787763,56.8588272 21.1246102,56.9238265 21.1246102,57.0538272 L21.0921102,57.4438272 C21.1137769,58.0288301 21.1246102,58.7654894 21.1246102,59.6538272 L21.1246102,62.2213272 C21.1246102,63.0879982 21.0975271,63.9384063 21.0433602,64.7725772 C20.9891932,65.606748 20.8646111,66.3542405 20.6696102,67.0150772 C20.4746092,67.6759138 20.198362,68.2067418 19.8408602,68.6075772 C19.4833584,69.0084125 18.9904466,69.2088272 18.3621102,69.2088272 C17.8204408,69.2088272 17.2516965,69.1817441 16.6558602,69.1275772 C16.0600239,69.0734102 15.5183626,68.9379949 15.0308602,68.7213272 C14.5433577,68.5046594 14.1425284,68.1850793 13.8283602,67.7625772 C13.5141919,67.340075 13.3571102,66.7713307 13.3571102,66.0563272 C13.3571102,65.3413236 13.4383594,64.6100809 13.6008602,63.8625772 C13.763361,63.1150734 13.9962753,62.3892473 14.2996102,61.6850772 C14.602945,60.980907 14.9658581,60.309247 15.3883602,59.6700772 C15.8108623,59.0309073 16.2712743,58.462163 16.7696102,57.9638272 C17.0296115,57.7038259 17.3166919,57.4384118 17.6308602,57.1675772 C17.9450284,56.8967425 18.2212756,56.6746614 18.4596102,56.5013272 L18.4596102,56.4688272 C18.5029437,56.0138249 18.5354434,55.5588294 18.5571102,55.1038272 C18.5787769,54.6488249 18.5896102,54.1829962 18.5896102,53.7063272 C18.4812763,53.9013281 18.3512776,54.1667421 18.1996102,54.5025772 C18.0479427,54.8384122 17.8691945,55.1579923 17.6633602,55.4613272 C17.4575258,55.764662 17.2246115,56.030076 16.9646102,56.2575772 C16.7046089,56.4850783 16.4121118,56.5988272 16.0871102,56.5988272 C15.913776,56.5988272 15.7621108,56.5663275 15.6321102,56.5013272 C15.5021095,56.4363268 15.3179447,56.4038272 15.0796102,56.4038272 C14.4729405,56.3604936 13.9691955,56.1979952 13.5683602,55.9163272 C13.1675248,55.6346591 12.8533613,55.244663 12.6258602,54.7463272 C12.398359,54.2479913 12.2412773,53.6575806 12.1546102,52.9750772 C12.0679431,52.2925737 12.0246102,51.5288314 12.0246102,50.6838272 C12.0246102,49.6654887 12.0841929,48.6146659 12.2033602,47.5313272 C12.3225274,46.4479884 12.5337753,45.4567483 12.8371102,44.5575772 C13.140445,43.658406 13.546691,42.9217467 14.0558602,42.3475772 C14.5650294,41.7734076 15.2096063,41.4863272 15.9896102,41.4863272 C16.0762773,41.4863272 16.1900261,41.5188268 16.3308602,41.5838272 C16.4716942,41.6488275 16.6233594,41.7192434 16.7858602,41.7950772 C16.948361,41.8709109 17.1108594,41.9467434 17.2733602,42.0225772 C17.435861,42.0984109 17.5604431,42.1471604 17.6471102,42.1688272 C18.0804457,42.2554943 18.481275,42.3638265 18.8496102,42.4938272 C19.2179453,42.6238278 19.5321089,42.7917428 19.7921102,42.9975772 C20.0521115,43.2034115 20.2579427,43.4742421 20.4096102,43.8100772 C20.5612776,44.1459122 20.6371102,44.5629913 20.6371102,45.0613272 C20.6371102,45.4079956 20.6100271,45.7221591 20.5558602,46.0038272 C20.5016932,46.2854952 20.4746102,46.6429917 20.4746102,47.0763272 C20.4746102,47.2496614 20.5396095,47.3688268 20.6696102,47.4338272 C20.7996108,47.4988275 20.9458594,47.5529936 21.1083602,47.5963272 C21.270861,47.6396607 21.4171095,47.6884102 21.5471102,47.7425772 C21.6771108,47.7967441 21.7421102,47.910493 21.7421102,48.0838272 C21.7421102,48.1271607 21.6933607,48.2300763 21.5958602,48.3925772 C21.4983597,48.555078 21.4387769,48.6579936 21.4171102,48.7013272 C21.3521098,48.8746614 21.2979437,49.1509086 21.2546102,49.5300772 C21.2112766,49.9092457 21.1787769,50.3209083 21.1571102,50.7650772 C21.1354434,51.209246 21.1191936,51.6642415 21.1083602,52.1300772 C21.0975268,52.5959128 21.0921102,53.012992 21.0921102,53.3813272 L21.0921102,54.5025772 C21.0921102,54.9684128 21.1029434,55.3529923 21.1246102,55.6563272 L21.2546102,55.6563272 C21.2979437,55.6563272 21.3412766,55.6509105 21.3846102,55.6400772 C21.4279437,55.6292438 21.4604434,55.6238272 21.4821102,55.6238272 C21.6771111,55.6238272 21.9425252,55.6834099 22.2783602,55.8025772 C22.6141952,55.9217444 22.7821102,56.1004926 22.7821102,56.3388272 Z M18.6221102,46.2963272 C18.6221102,46.0579926 18.6004437,45.787162 18.5571102,45.4838272 C18.5137766,45.1804923 18.437944,44.8934118 18.3296102,44.6225772 C18.2212763,44.3517425 18.0641945,44.1242447 17.8583602,43.9400772 C17.6525258,43.7559096 17.397945,43.6638272 17.0946102,43.6638272 C16.6829414,43.6638272 16.298362,43.8263255 15.9408602,44.1513272 C15.5833584,44.4763288 15.2691949,44.9367408 14.9983602,45.5325772 C14.7275255,46.1284135 14.510861,46.8542395 14.3483602,47.7100772 C14.1858594,48.5659148 14.1046102,49.5354884 14.1046102,50.6188272 C14.1046102,51.0738294 14.12086,51.5450747 14.1533602,52.0325772 C14.1858603,52.5200796 14.2400265,52.9588252 14.3158602,53.3488272 C14.3916939,53.7388291 14.5108594,54.0638259 14.6733602,54.3238272 C14.835861,54.5838285 15.0471089,54.7138272 15.3071102,54.7138272 C15.7621124,54.7138272 16.1629418,54.5188291 16.5096102,54.1288272 C16.8562786,53.7388252 17.143359,53.2567467 17.3708602,52.6825772 C17.5983613,52.1084076 17.7716929,51.5125802 17.8908602,50.8950772 C18.0100274,50.2775741 18.0804434,49.7413294 18.1021102,49.2863272 C18.1237769,48.6579907 18.1562766,48.2300783 18.1996102,48.0025772 C18.2429437,47.775076 18.2862766,47.6288275 18.3296102,47.5638272 C18.4596108,47.390493 18.54086,47.1846617 18.5733602,46.9463272 C18.6058603,46.7079926 18.6221102,46.4913281 18.6221102,46.2963272 Z M18.4921102,57.6063272 C17.9937743,57.9529956 17.5225291,58.4404907 17.0783602,59.0688272 C16.6341913,59.6971636 16.2496118,60.3796568 15.9246102,61.1163272 C15.5996085,61.8529975 15.3450278,62.60049 15.1608602,63.3588272 C14.9766926,64.1171643 14.8846102,64.7996575 14.8846102,65.4063272 C14.8846102,65.6229949 14.9062766,65.8613259 14.9496102,66.1213272 C14.9929437,66.3813285 15.0633597,66.625076 15.1608602,66.8525772 C15.2583607,67.0800783 15.3991926,67.2696597 15.5833602,67.4213272 C15.7675278,67.5729946 15.9896089,67.6488272 16.2496102,67.6488272 C16.7046124,67.6488272 17.0783587,67.4592457 17.3708602,67.0800772 C17.6633616,66.7009086 17.8908594,66.2513298 18.0533602,65.7313272 C18.215861,65.2113246 18.3241932,64.6804965 18.3783602,64.1388272 C18.4325271,63.5971578 18.4596102,63.1638288 18.4596102,62.8388272 L18.4596102,62.5463272 C18.4596102,62.4163265 18.4650268,62.1671623 18.4758602,61.7988272 C18.4866936,61.430492 18.4921102,60.9159138 18.4921102,60.2550772 C18.4921102,59.5942405 18.4921102,58.7113327 18.4921102,57.6063272 Z M32.9871102,50.4888272 C32.9871102,51.0304965 32.8896111,51.6371571 32.6946102,52.3088272 C32.4996092,52.9804972 32.1962789,53.6034076 31.7846102,54.1775772 C31.3729414,54.7517467 30.84753,55.2338252 30.2083602,55.6238272 C29.5691903,56.0138291 28.8054479,56.2088272 27.9171102,56.2088272 C27.0721059,56.2088272 26.3571131,56.057162 25.7721102,55.7538272 C25.1871072,55.4504923 24.7050287,55.0388298 24.3258602,54.5188272 C23.9466916,53.9988246 23.675861,53.3867473 23.5133602,52.6825772 C23.3508594,51.978407 23.2696102,51.2363311 23.2696102,50.4563272 C23.2696102,49.69799 23.356276,48.8638317 23.5296102,47.9538272 C23.7029444,47.0438226 23.973775,46.1934144 24.3421102,45.4025772 C24.7104453,44.6117399 25.176274,43.9509131 25.7396102,43.4200772 C26.3029463,42.8892412 26.9854395,42.6238272 27.7871102,42.6238272 C28.1771121,42.6238272 28.5454418,42.7050763 28.8921102,42.8675772 C29.2387786,43.030078 29.5421089,43.2413259 29.8021102,43.5013272 C30.0621115,43.7613285 30.2679427,44.0646588 30.4196102,44.4113272 C30.5712776,44.7579956 30.6579434,45.115492 30.6796102,45.4838272 L30.7121102,45.9388272 C30.7121102,46.4588298 30.6254444,47.0275741 30.4521102,47.6450772 C30.278776,48.2625802 30.0296118,48.8367412 29.7046102,49.3675772 C29.3796085,49.8984131 28.9787792,50.3425754 28.5021102,50.7000772 C28.0254411,51.0575789 27.4837799,51.2363272 26.8771102,51.2363272 C26.7687763,51.2363272 26.633361,51.2254939 26.4708602,51.2038272 C26.3083594,51.1821604 26.1512776,51.1496607 25.9996102,51.1063272 L25.9996102,52.0488272 C25.9996102,52.2004946 26.0483597,52.4171591 26.1458602,52.6988272 C26.2433607,52.9804952 26.3896092,53.2567425 26.5846102,53.5275772 C26.7796111,53.7984118 27.0341919,54.0367428 27.3483602,54.2425772 C27.6625284,54.4484115 28.0471079,54.5513272 28.5021102,54.5513272 C29.1304466,54.5513272 29.6450248,54.4267451 30.0458602,54.1775772 C30.4466955,53.9284092 30.7771089,53.6088291 31.0371102,53.2188272 C31.2971115,52.8288252 31.4975261,52.3900796 31.6383602,51.9025772 C31.7791942,51.4150747 31.8929431,50.9438294 31.9796102,50.4888272 C32.0446105,50.1854923 32.1096098,49.979661 32.1746102,49.8713272 C32.2396105,49.7629933 32.3479427,49.7088272 32.4996102,49.7088272 C32.8246118,49.7088272 32.9871102,49.892992 32.9871102,50.2613272 L32.9871102,50.4888272 Z M29.1521102,45.4513272 C29.1521102,45.277993 29.1033607,45.0938281 29.0058602,44.8988272 C28.9083597,44.7038262 28.7296115,44.6063272 28.4696102,44.6063272 C28.0796082,44.6063272 27.7437782,44.8121584 27.4621102,45.2238272 C27.1804421,45.6354959 26.9475278,46.1067412 26.7633602,46.6375772 C26.5791926,47.1684131 26.4437773,47.6775747 26.3571102,48.1650772 C26.2704431,48.6525796 26.2271102,48.9721597 26.2271102,49.1238272 L26.2271102,49.2213272 C26.2271102,49.4163281 26.24336,49.5734099 26.2758602,49.6925772 C26.3083603,49.8117444 26.4221092,49.8713272 26.6171102,49.8713272 L26.7796102,49.8713272 C27.2129457,49.8713272 27.5812753,49.7088288 27.8846102,49.3838272 C28.187945,49.0588255 28.4316926,48.6688294 28.6158602,48.2138272 C28.8000278,47.7588249 28.9354431,47.2929962 29.0221102,46.8163272 C29.1087773,46.3396581 29.1521102,45.949662 29.1521102,45.6463272 L29.1521102,45.4513272 Z M33.2471102,49.6113272 C33.2687769,48.5063216 33.3012766,47.3796662 33.3446102,46.2313272 C33.3879437,45.0829881 33.4312766,44.021332 33.4746102,43.0463272 C33.4746102,42.872993 33.3012786,42.7538275 32.9546102,42.6888272 C32.6079418,42.6238268 32.2179457,42.5588275 31.7846102,42.4938272 C31.3512747,42.4288268 30.9612786,42.3259112 30.6146102,42.1850772 C30.2679418,42.0442431 30.0946102,41.8113288 30.0946102,41.4863272 C30.0946102,41.2046591 30.376274,41.0421607 30.9396102,40.9988272 C31.5029463,40.9554936 32.3371046,40.9338272 33.4421102,40.9338272 C33.5287773,40.9338272 33.58836,40.8038285 33.6208602,40.5438272 C33.6533603,40.2838259 33.6750268,39.9534125 33.6858602,39.5525772 C33.6966936,39.1517418 33.7075268,38.7238294 33.7183602,38.2688272 C33.7291936,37.8138249 33.7454434,37.3859125 33.7671102,36.9850772 C33.7887769,36.5842418 33.8266932,36.2538285 33.8808602,35.9938272 C33.9350271,35.7338259 34.0054431,35.6038272 34.0921102,35.6038272 C34.200444,35.6038272 34.3954421,35.6254936 34.6771102,35.6688272 C34.9587782,35.7121607 35.2512753,35.7717434 35.5546102,35.8475772 C35.857945,35.9234109 36.123359,36.0154933 36.3508602,36.1238272 C36.5783613,36.232161 36.6921102,36.3513265 36.6921102,36.4813272 L36.3346102,40.7063272 C36.3346102,40.8363278 36.448359,40.9284102 36.6758602,40.9825772 C36.9033613,41.0367441 37.1958584,41.0692438 37.5533602,41.0800772 C37.910862,41.0909105 38.2900248,41.0963272 38.6908602,41.0963272 C39.0916955,41.0963272 39.4708584,41.1288268 39.8283602,41.1938272 C40.185862,41.2588275 40.478359,41.3617431 40.7058602,41.5025772 C40.9333613,41.6434112 41.0471102,41.8546591 41.0471102,42.1363272 C41.0471102,42.1796607 41.0254437,42.2500767 40.9821102,42.3475772 C40.9387766,42.4450776 40.8846105,42.4938272 40.8196102,42.4938272 C40.7762766,42.4938272 40.7166939,42.4613275 40.6408602,42.3963272 C40.5650265,42.3313268 40.3646118,42.2988272 40.0396102,42.2988272 C39.9529431,42.2988272 39.7146121,42.3096604 39.3246102,42.3313272 C38.9346082,42.3529939 38.5229457,42.3854936 38.0896102,42.4288272 C37.6562747,42.4721607 37.260862,42.5209102 36.9033602,42.5750772 C36.5458584,42.6292441 36.3454437,42.6996601 36.3021102,42.7863272 C36.2804434,42.8296607 36.2533603,43.0842415 36.2208602,43.5500772 C36.18836,44.0159128 36.1558603,44.62799 36.1233602,45.3863272 C36.09086,46.1446643 36.0637769,47.0167389 36.0421102,48.0025772 C36.0204434,48.9884154 36.0096102,50.0229884 36.0096102,51.1063272 C36.0096102,51.5179959 36.0312766,51.9188252 36.0746102,52.3088272 C36.1179437,52.6988291 36.1829431,53.0509089 36.2696102,53.3650772 C36.3562773,53.6792454 36.4700261,53.9338262 36.6108602,54.1288272 C36.7516942,54.3238281 36.9196092,54.4213272 37.1146102,54.4213272 C37.3962782,54.4213272 37.6562756,54.3021617 37.8946102,54.0638272 C38.1329447,53.8254926 38.3496092,53.5004959 38.5446102,53.0888272 C38.7396111,52.6771584 38.9129427,52.2113298 39.0646102,51.6913272 C39.2162776,51.1713246 39.3462763,50.6404965 39.4546102,50.0988272 C39.5196105,49.7738255 39.5954431,49.5409112 39.6821102,49.4000772 C39.7687773,49.2592431 39.898776,49.1888272 40.0721102,49.1888272 C40.2237776,49.1888272 40.3591929,49.2375767 40.4783602,49.3350772 C40.5975274,49.4325776 40.6571102,49.6546588 40.6571102,50.0013272 C40.6571102,50.2179949 40.6462769,50.3588268 40.6246102,50.4238272 C40.5596098,50.8138291 40.4350278,51.3500737 40.2508602,52.0325772 C40.0666926,52.7150806 39.8175284,53.3867405 39.5033602,54.0475772 C39.1891919,54.7084138 38.8046124,55.2879913 38.3496102,55.7863272 C37.8946079,56.284663 37.3637799,56.5338272 36.7571102,56.5338272 C36.1721072,56.5338272 35.6629457,56.3659122 35.2296102,56.0300772 C34.7962747,55.6942421 34.4333616,55.2284135 34.1408602,54.6325772 C33.8483587,54.0367408 33.6262776,53.3325812 33.4746102,52.5200772 C33.3229427,51.7075731 33.2471102,50.8354985 33.2471102,49.9038272 L33.2471102,49.6113272 Z M50.6671102,40.4463272 C50.6671102,40.5979946 50.5912776,40.7225767 50.4396102,40.8200772 C50.2879427,40.9175776 50.1200278,40.9879936 49.9358602,41.0313272 C49.7516926,41.0746607 49.5729444,41.1071604 49.3996102,41.1288272 C49.226276,41.1504939 49.1179437,41.1613272 49.0746102,41.1613272 C48.6196079,41.1613272 48.1700291,41.0313285 47.7258602,40.7713272 C47.2816913,40.5113259 46.8754453,40.0996633 46.5071102,39.5363272 C46.4637766,39.4713268 46.3987773,39.384661 46.3121102,39.2763272 C46.2254431,39.1679933 46.1821102,39.0921607 46.1821102,39.0488272 C46.1821102,38.9404933 46.2633594,38.8429943 46.4258602,38.7563272 C46.588361,38.6696601 46.7725258,38.5829943 46.9783602,38.4963272 C47.1841945,38.4096601 47.3791926,38.3446607 47.5633602,38.3013272 C47.7475278,38.2579936 47.8721098,38.2363272 47.9371102,38.2363272 C48.3704457,38.2363272 48.7983581,38.3446594 49.2208602,38.5613272 C49.6433623,38.7779949 49.9846089,39.1788242 50.2446102,39.7638272 C50.2879437,39.8288275 50.3691929,39.9425763 50.4883602,40.1050772 C50.6075274,40.267578 50.6671102,40.3813268 50.6671102,40.4463272 Z M53.9821102,50.2938272 C53.9171098,50.8138298 53.7979444,51.355491 53.6246102,51.9188272 C53.451276,52.4821633 53.2075284,53.0075747 52.8933602,53.4950772 C52.5791919,53.9825796 52.1837792,54.3834089 51.7071102,54.6975772 C51.2304411,55.0117454 50.645447,55.1688272 49.9521102,55.1688272 C49.4104408,55.1688272 48.8579463,54.9846623 48.2946102,54.6163272 C47.731274,54.2263252 47.3466945,53.7171636 47.1408602,53.0888272 C46.9350258,52.4604907 46.8321102,51.8538301 46.8321102,51.2688272 C46.8321102,51.095493 46.8429434,50.8354956 46.8646102,50.4888272 C46.8862769,50.1421588 46.8971102,49.719663 46.8971102,49.2213272 L46.8971102,45.6463272 C46.8971102,45.472993 46.8916936,45.2888281 46.8808602,45.0938272 C46.8700268,44.8988262 46.8429437,44.7146614 46.7996102,44.5413272 C46.7779434,44.4546601 46.7400271,44.357161 46.6858602,44.2488272 C46.6316932,44.1404933 46.6046102,44.0646607 46.6046102,44.0213272 C46.6046102,43.9346601 46.6587763,43.8642441 46.7671102,43.8100772 C46.875444,43.7559102 46.9946095,43.7179939 47.1246102,43.6963272 C47.2546108,43.6746604 47.3791929,43.6638272 47.4983602,43.6638272 L47.6771102,43.6638272 C47.7421105,43.6638272 47.8937756,43.6692438 48.1321102,43.6800772 C48.3704447,43.6909105 48.6196089,43.7288268 48.8796102,43.7938272 C49.1396115,43.8588275 49.3725258,43.9617431 49.5783602,44.1025772 C49.7841945,44.2434112 49.8871102,44.4438259 49.8871102,44.7038272 C49.9087769,44.7688275 49.8708607,44.887993 49.7733602,45.0613272 C49.6758597,45.2346614 49.5837773,45.5379917 49.4971102,45.9713272 C49.4754434,46.1446614 49.4537769,46.3017431 49.4321102,46.4425772 C49.4104434,46.5834112 49.3887769,46.740493 49.3671102,46.9138272 C49.3454434,47.0871614 49.3237769,47.2984092 49.3021102,47.5475772 C49.2804434,47.7967451 49.2587769,48.1163252 49.2371102,48.5063272 L49.2371102,50.4563272 C49.2371102,50.8029956 49.2479434,51.1550754 49.2696102,51.5125772 C49.2912769,51.8700789 49.3400265,52.1950757 49.4158602,52.4875772 C49.4916939,52.7800786 49.616276,53.0184096 49.7896102,53.2025772 C49.9629444,53.3867447 50.1904421,53.4788272 50.4721102,53.4788272 C50.8837789,53.4788272 51.2087756,53.3596617 51.4471102,53.1213272 C51.6854447,52.8829926 51.8696095,52.6771614 51.9996102,52.5038272 C52.2379447,52.1788255 52.4221095,51.7725796 52.5521102,51.2850772 C52.6821108,50.7975747 52.8012763,50.2938298 52.9096102,49.7738272 L52.9746102,49.4488272 C53.0396105,49.1238255 53.2346085,48.9613272 53.5596102,48.9613272 C53.8846118,48.9613272 54.0471102,49.1888249 54.0471102,49.6438272 L54.0471102,49.8063272 L53.9821102,50.2938272 Z M54.0796102,49.6113272 C54.1012769,48.5063216 54.1337766,47.3796662 54.1771102,46.2313272 C54.2204437,45.0829881 54.2637766,44.021332 54.3071102,43.0463272 C54.3071102,42.872993 54.1337786,42.7538275 53.7871102,42.6888272 C53.4404418,42.6238268 53.0504457,42.5588275 52.6171102,42.4938272 C52.1837747,42.4288268 51.7937786,42.3259112 51.4471102,42.1850772 C51.1004418,42.0442431 50.9271102,41.8113288 50.9271102,41.4863272 C50.9271102,41.2046591 51.208774,41.0421607 51.7721102,40.9988272 C52.3354463,40.9554936 53.1696046,40.9338272 54.2746102,40.9338272 C54.3612773,40.9338272 54.42086,40.8038285 54.4533602,40.5438272 C54.4858603,40.2838259 54.5075268,39.9534125 54.5183602,39.5525772 C54.5291936,39.1517418 54.5400268,38.7238294 54.5508602,38.2688272 C54.5616936,37.8138249 54.5779434,37.3859125 54.5996102,36.9850772 C54.6212769,36.5842418 54.6591932,36.2538285 54.7133602,35.9938272 C54.7675271,35.7338259 54.8379431,35.6038272 54.9246102,35.6038272 C55.032944,35.6038272 55.2279421,35.6254936 55.5096102,35.6688272 C55.7912782,35.7121607 56.0837753,35.7717434 56.3871102,35.8475772 C56.690445,35.9234109 56.955859,36.0154933 57.1833602,36.1238272 C57.4108613,36.232161 57.5246102,36.3513265 57.5246102,36.4813272 L57.1671102,40.7063272 C57.1671102,40.8363278 57.280859,40.9284102 57.5083602,40.9825772 C57.7358613,41.0367441 58.0283584,41.0692438 58.3858602,41.0800772 C58.743362,41.0909105 59.1225248,41.0963272 59.5233602,41.0963272 C59.9241955,41.0963272 60.3033584,41.1288268 60.6608602,41.1938272 C61.018362,41.2588275 61.310859,41.3617431 61.5383602,41.5025772 C61.7658613,41.6434112 61.8796102,41.8546591 61.8796102,42.1363272 C61.8796102,42.1796607 61.8579437,42.2500767 61.8146102,42.3475772 C61.7712766,42.4450776 61.7171105,42.4938272 61.6521102,42.4938272 C61.6087766,42.4938272 61.5491939,42.4613275 61.4733602,42.3963272 C61.3975265,42.3313268 61.1971118,42.2988272 60.8721102,42.2988272 C60.7854431,42.2988272 60.5471121,42.3096604 60.1571102,42.3313272 C59.7671082,42.3529939 59.3554457,42.3854936 58.9221102,42.4288272 C58.4887747,42.4721607 58.093362,42.5209102 57.7358602,42.5750772 C57.3783584,42.6292441 57.1779437,42.6996601 57.1346102,42.7863272 C57.1129434,42.8296607 57.0858603,43.0842415 57.0533602,43.5500772 C57.02086,44.0159128 56.9883603,44.62799 56.9558602,45.3863272 C56.92336,46.1446643 56.8962769,47.0167389 56.8746102,48.0025772 C56.8529434,48.9884154 56.8421102,50.0229884 56.8421102,51.1063272 C56.8421102,51.5179959 56.8637766,51.9188252 56.9071102,52.3088272 C56.9504437,52.6988291 57.0154431,53.0509089 57.1021102,53.3650772 C57.1887773,53.6792454 57.3025261,53.9338262 57.4433602,54.1288272 C57.5841942,54.3238281 57.7521092,54.4213272 57.9471102,54.4213272 C58.2287782,54.4213272 58.4887756,54.3021617 58.7271102,54.0638272 C58.9654447,53.8254926 59.1821092,53.5004959 59.3771102,53.0888272 C59.5721111,52.6771584 59.7454427,52.2113298 59.8971102,51.6913272 C60.0487776,51.1713246 60.1787763,50.6404965 60.2871102,50.0988272 C60.3521105,49.7738255 60.4279431,49.5409112 60.5146102,49.4000772 C60.6012773,49.2592431 60.731276,49.1888272 60.9046102,49.1888272 C61.0562776,49.1888272 61.1916929,49.2375767 61.3108602,49.3350772 C61.4300274,49.4325776 61.4896102,49.6546588 61.4896102,50.0013272 C61.4896102,50.2179949 61.4787769,50.3588268 61.4571102,50.4238272 C61.3921098,50.8138291 61.2675278,51.3500737 61.0833602,52.0325772 C60.8991926,52.7150806 60.6500284,53.3867405 60.3358602,54.0475772 C60.0216919,54.7084138 59.6371124,55.2879913 59.1821102,55.7863272 C58.7271079,56.284663 58.1962799,56.5338272 57.5896102,56.5338272 C57.0046072,56.5338272 56.4954457,56.3659122 56.0621102,56.0300772 C55.6287747,55.6942421 55.2658616,55.2284135 54.9733602,54.6325772 C54.6808587,54.0367408 54.4587776,53.3325812 54.3071102,52.5200772 C54.1554427,51.7075731 54.0796102,50.8354985 54.0796102,49.9038272 L54.0796102,49.6113272 Z M79.7221102,40.4463272 C79.7221102,40.5979946 79.6462776,40.7225767 79.4946102,40.8200772 C79.3429427,40.9175776 79.1750278,40.9879936 78.9908602,41.0313272 C78.8066926,41.0746607 78.6279444,41.1071604 78.4546102,41.1288272 C78.281276,41.1504939 78.1729437,41.1613272 78.1296102,41.1613272 C77.6746079,41.1613272 77.2250291,41.0313285 76.7808602,40.7713272 C76.3366913,40.5113259 75.9304453,40.0996633 75.5621102,39.5363272 C75.5187766,39.4713268 75.4537773,39.384661 75.3671102,39.2763272 C75.2804431,39.1679933 75.2371102,39.0921607 75.2371102,39.0488272 C75.2371102,38.9404933 75.3183594,38.8429943 75.4808602,38.7563272 C75.643361,38.6696601 75.8275258,38.5829943 76.0333602,38.4963272 C76.2391945,38.4096601 76.4341926,38.3446607 76.6183602,38.3013272 C76.8025278,38.2579936 76.9271098,38.2363272 76.9921102,38.2363272 C77.4254457,38.2363272 77.8533581,38.3446594 78.2758602,38.5613272 C78.6983623,38.7779949 79.0396089,39.1788242 79.2996102,39.7638272 C79.3429437,39.8288275 79.4241929,39.9425763 79.5433602,40.1050772 C79.6625274,40.267578 79.7221102,40.3813268 79.7221102,40.4463272 Z M76.0462287,52.5622209 C76.0930639,52.371501 76.1321076,52.18412 76.1633602,52.0000772 C76.2608607,51.4259076 76.3096102,51.0629946 76.3096102,50.9113272 C76.3312769,50.8246601 76.3475268,50.6892447 76.3583602,50.5050772 C76.3691936,50.3209096 76.3746102,50.2071607 76.3746102,50.1638272 C76.3746102,49.7871165 76.2331064,49.5923448 75.9500948,49.5795066 C75.9476096,49.7916489 75.942826,49.9877013 75.9357439,50.167665 C75.9312794,50.2811125 75.9259015,50.3881664 75.9196102,50.4888272 C75.8979434,50.8354956 75.8871102,51.095493 75.8871102,51.2688272 C75.8871102,51.6887946 75.9401493,52.1199236 76.0462287,52.5622209 L76.0462287,52.5622209 Z M82.1716265,49.1349706 C82.2729821,49.019208 82.420643,48.9613272 82.6146102,48.9613272 C82.9396118,48.9613272 83.1021102,49.1888249 83.1021102,49.6438272 L83.1021102,49.8063272 L83.0371102,50.2938272 C82.9721098,50.8138298 82.8529444,51.355491 82.6796102,51.9188272 C82.5676471,52.2827071 82.4263051,52.6307635 82.2555822,52.9630006 C82.1699338,52.2835679 82.1271102,51.5238509 82.1271102,50.6838272 C82.1271102,50.175633 82.1419489,49.6593488 82.1716265,49.1349706 L82.1716265,49.1349706 Z M88.7246102,46.2963272 C88.7246102,46.0579926 88.7029437,45.787162 88.6596102,45.4838272 C88.6162766,45.1804923 88.540444,44.8934118 88.4321102,44.6225772 C88.3237763,44.3517425 88.1666945,44.1242447 87.9608602,43.9400772 C87.7550258,43.7559096 87.500445,43.6638272 87.1971102,43.6638272 C86.7854414,43.6638272 86.400862,43.8263255 86.0433602,44.1513272 C85.6858584,44.4763288 85.3716949,44.9367408 85.1008602,45.5325772 C84.8300255,46.1284135 84.613361,46.8542395 84.4508602,47.7100772 C84.2883594,48.5659148 84.2071102,49.5354884 84.2071102,50.6188272 C84.2071102,51.0738294 84.22336,51.5450747 84.2558602,52.0325772 C84.2883603,52.5200796 84.3425265,52.9588252 84.4183602,53.3488272 C84.4941939,53.7388291 84.6133594,54.0638259 84.7758602,54.3238272 C84.938361,54.5838285 85.1496089,54.7138272 85.4096102,54.7138272 C85.8646124,54.7138272 86.2654418,54.5188291 86.6121102,54.1288272 C86.9587786,53.7388252 87.245859,53.2567467 87.4733602,52.6825772 C87.7008613,52.1084076 87.8741929,51.5125802 87.9933602,50.8950772 C88.1125274,50.2775741 88.1829434,49.7413294 88.2046102,49.2863272 C88.2262769,48.6579907 88.2587766,48.2300783 88.3021102,48.0025772 C88.3454437,47.775076 88.3887766,47.6288275 88.4321102,47.5638272 C88.5621108,47.390493 88.64336,47.1846617 88.6758602,46.9463272 C88.7083603,46.7079926 88.7246102,46.4913281 88.7246102,46.2963272 Z M88.5946102,57.6063272 C88.0962743,57.9529956 87.6250291,58.4404907 87.1808602,59.0688272 C86.7366913,59.6971636 86.3521118,60.3796568 86.0271102,61.1163272 C85.7021085,61.8529975 85.4475278,62.60049 85.2633602,63.3588272 C85.0791926,64.1171643 84.9871102,64.7996575 84.9871102,65.4063272 C84.9871102,65.6229949 85.0087766,65.8613259 85.0521102,66.1213272 C85.0954437,66.3813285 85.1658597,66.625076 85.2633602,66.8525772 C85.3608607,67.0800783 85.5016926,67.2696597 85.6858602,67.4213272 C85.8700278,67.5729946 86.0921089,67.6488272 86.3521102,67.6488272 C86.8071124,67.6488272 87.1808587,67.4592457 87.4733602,67.0800772 C87.7658616,66.7009086 87.9933594,66.2513298 88.1558602,65.7313272 C88.318361,65.2113246 88.4266932,64.6804965 88.4808602,64.1388272 C88.5350271,63.5971578 88.5621102,63.1638288 88.5621102,62.8388272 L88.5621102,62.5463272 C88.5621102,62.4163265 88.5675268,62.1671623 88.5783602,61.7988272 C88.5891936,61.430492 88.5946102,60.9159138 88.5946102,60.2550772 L88.5946102,57.6063272 Z M106.000344,52.0434932 C106.141438,51.5482225 106.222026,51.1600039 106.24211,50.8788272 L106.27461,50.4563272 C106.27461,50.1746591 106.225861,49.9471614 106.12836,49.7738272 C106.065743,49.6625082 105.974084,49.5869355 105.853381,49.5471084 C105.852953,49.5685228 105.85253,49.589929 105.85211,49.6113272 L105.85211,49.9038272 C105.85211,50.6558766 105.901521,51.369094 106.000344,52.0434932 L106.000344,52.0434932 Z M118.20211,54.3888272 C118.20211,54.5188278 118.077528,54.6650763 117.82836,54.8275772 C117.579192,54.990078 117.292112,55.1417431 116.96711,55.2825772 C116.642109,55.4234112 116.327945,55.5371601 116.02461,55.6238272 C115.721275,55.7104943 115.504611,55.7538272 115.37461,55.7538272 C114.897941,55.7538272 114.470029,55.6509115 114.09086,55.4450772 C113.711692,55.2392428 113.316279,55.0496614 112.90461,54.8763272 C112.96961,54.8113268 113.00211,54.724661 113.00211,54.6163272 C113.00211,54.5296601 112.937111,54.4646607 112.80711,54.4213272 L112.80711,54.2588272 C112.80711,53.9988259 112.920859,53.7604949 113.14836,53.5438272 C113.375861,53.3271594 113.646692,53.1429946 113.96086,52.9913272 C114.275028,52.8396597 114.600025,52.7259109 114.93586,52.6500772 C115.271695,52.5742434 115.547942,52.5363272 115.76461,52.5363272 C115.959611,52.5363272 116.192525,52.5904933 116.46336,52.6988272 C116.734195,52.807161 116.999609,52.9534096 117.25961,53.1375772 C117.519611,53.3217447 117.741693,53.5221594 117.92586,53.7388272 C118.110028,53.9554949 118.20211,54.1721594 118.20211,54.3888272 Z M122.94711,40.4463272 C122.94711,40.5979946 122.871278,40.7225767 122.71961,40.8200772 C122.567943,40.9175776 122.400028,40.9879936 122.21586,41.0313272 C122.031693,41.0746607 121.852944,41.1071604 121.67961,41.1288272 C121.506276,41.1504939 121.397944,41.1613272 121.35461,41.1613272 C120.899608,41.1613272 120.450029,41.0313285 120.00586,40.7713272 C119.561691,40.5113259 119.155445,40.0996633 118.78711,39.5363272 C118.743777,39.4713268 118.678777,39.384661 118.59211,39.2763272 C118.505443,39.1679933 118.46211,39.0921607 118.46211,39.0488272 C118.46211,38.9404933 118.543359,38.8429943 118.70586,38.7563272 C118.868361,38.6696601 119.052526,38.5829943 119.25836,38.4963272 C119.464195,38.4096601 119.659193,38.3446607 119.84336,38.3013272 C120.027528,38.2579936 120.15211,38.2363272 120.21711,38.2363272 C120.650446,38.2363272 121.078358,38.3446594 121.50086,38.5613272 C121.923362,38.7779949 122.264609,39.1788242 122.52461,39.7638272 C122.567944,39.8288275 122.649193,39.9425763 122.76836,40.1050772 C122.887527,40.267578 122.94711,40.3813268 122.94711,40.4463272 Z M125.4768,52.97035 C125.649218,52.6358973 125.791821,52.2853911 125.90461,51.9188272 C126.077944,51.355491 126.19711,50.8138298 126.26211,50.2938272 L126.32711,49.8063272 L126.32711,49.6438272 C126.32711,49.1888249 126.164612,48.9613272 125.83961,48.9613272 C125.514609,48.9613272 125.31961,49.1238255 125.25461,49.4488272 L125.18961,49.7738272 C125.158298,49.9241259 125.126081,50.0730665 125.092959,50.2206493 C125.092393,50.2667462 125.09211,50.3128055 125.09211,50.3588272 C125.09211,50.8138294 125.12461,51.2850747 125.18961,51.7725772 C125.243851,52.1793806 125.33958,52.5786354 125.4768,52.97035 L125.4768,52.97035 Z M132.40461,48.9938272 C132.40461,48.9071601 132.399194,48.712162 132.38836,48.4088272 C132.377527,48.1054923 132.35586,47.7479959 132.32336,47.3363272 C132.29086,46.9246584 132.236694,46.496746 132.16086,46.0525772 C132.085026,45.6084083 131.976694,45.2021623 131.83586,44.8338272 C131.695026,44.465492 131.516278,44.1567451 131.29961,43.9075772 C131.082942,43.6584092 130.812112,43.5338272 130.48711,43.5338272 C130.162109,43.5338272 129.847945,43.6638259 129.54461,43.9238272 C129.241275,44.1838285 128.970445,44.5196584 128.73211,44.9313272 C128.493776,45.3429959 128.304194,45.8088246 128.16336,46.3288272 C128.022526,46.8488298 127.95211,47.3579913 127.95211,47.8563272 C127.95211,48.7229982 128.125442,49.3567418 128.47211,49.7575772 C128.818779,50.1584125 129.414606,50.3588272 130.25961,50.3588272 C130.887947,50.3588272 131.402525,50.2613281 131.80336,50.0663272 C132.204196,49.8713262 132.40461,49.719661 132.40461,49.6113272 L132.40461,48.9938272 Z M132.24211,51.6588272 C131.982109,51.8321614 131.624612,51.9621601 131.16961,52.0488272 C130.714608,52.1354943 130.335445,52.1788272 130.03211,52.1788272 C129.447107,52.1788272 128.997528,52.1354943 128.68336,52.0488272 C128.369192,51.9621601 128.027945,51.7888285 127.65961,51.5288272 L127.62711,52.2113272 C127.62711,52.4496617 127.65961,52.6988259 127.72461,52.9588272 C127.78961,53.2188285 127.892526,53.4571594 128.03336,53.6738272 C128.174194,53.8904949 128.374609,54.0692431 128.63461,54.2100772 C128.894611,54.3509112 129.219608,54.4213272 129.60961,54.4213272 C130.086279,54.4213272 130.492525,54.3292447 130.82836,54.1450772 C131.164195,53.9609096 131.435026,53.7279952 131.64086,53.4463272 C131.846695,53.1646591 131.99836,52.8613288 132.09586,52.5363272 C132.193361,52.2113255 132.24211,51.9188285 132.24211,51.6588272 Z" fill="#E74C3C"></path>
                </g>
                <path d="M77.3439331,49.3369751 L76.9478149,52.8295288 L75.6027832,52.4395142 L75.6861572,49.809082 L76.5430298,49.0770264 L77.3439331,49.3369751 Z" fill="#E74C3C" sketch:type="MSShapeGroup"></path>
                <path d="M82.6997681,48.0556641 L82.8930959,48.4861948 C83.2392368,49.2570319 83.9315186,50.7987061 83.9315186,50.7987061 L83.7368164,53.2175293 L81.583313,52.8363647 L82.2454834,48.809082 L82.6997681,48.0556641 Z" fill="#E74C3C" sketch:type="MSShapeGroup"></path>
                <path d="M105.690063,50.7909546 L105.550293,49.7042236 L106.448425,49.2369385 L107.061584,51.6461182 L105.423523,52.2675171 L105.690063,50.7909546 Z" fill="#E74C3C" sketch:type="MSShapeGroup"></path>
                <path d="M125.131165,52.9381104 L126.123474,53.0350952 C126.123474,53.0350952 127.147705,49.3839722 127.159241,49.3025513 C127.170776,49.2211304 126.514832,47.7282715 126.514832,47.7282715 L125.284424,49.0895996 L125.239014,49.2686768 L125.163086,49.4824219 L124.975281,51.5478516 L125.131165,52.9381104 Z" fill="#E74C3C" sketch:type="MSShapeGroup"></path>
            </g>
        </g>
    </g>
</svg>