<?xml version="1.0" encoding="UTF-8" standalone="no"?>
<svg width="146px" height="131px" viewBox="0 0 146 131" version="1.1" xmlns="http://www.w3.org/2000/svg" xmlns:xlink="http://www.w3.org/1999/xlink" xmlns:sketch="http://www.bohemiancoding.com/sketch/ns">
    <!-- Generator: Sketch 3.0.3 (7891) - http://www.bohemiancoding.com/sketch -->
    <title>Header</title>
    <desc>Created with Sketch.</desc>
    <defs></defs>
    <g stroke="none" stroke-width="1" fill="none" fill-rule="evenodd" sketch:type="MSPage">
        <g sketch:type="MSArtboardGroup" transform="translate(-439.000000, -217.000000)">
            <g sketch:type="MSLayerGroup" transform="translate(439.000000, 217.000000)">
                <g sketch:type="MSShapeGroup">
                    <path d="M32.3005758,0.0420856831 C27.4666106,-0.198009168 22.869154,0.595495801 18.7191922,2.26083455 C14.5011705,3.95341811 10.7884946,6.53145786 7.79385224,9.79742895 C4.78049339,13.0821309 2.52940714,17.0292221 1.23796763,21.4071218 C-0.0466658687,25.7645879 -0.366548118,30.4983729 0.443366513,35.3700848 L9.13973978,87.6562727 C9.8016238,91.6306087 11.3687065,95.1826503 13.6095838,98.1863901 C15.8011175,101.128829 18.6273112,103.533183 21.8635667,105.307501 C25.0232546,107.039249 28.5725864,108.168206 32.3124863,108.61434 C35.9656097,109.050256 39.8093012,108.835704 43.6734107,107.899163 L50.7193277,106.191255 C51.179684,106.258173 51.7809235,106.089573 51.7161361,106.339657 C51.0229057,109.015583 50.2674248,111.644389 49.4535976,114.224773 C48.5671155,117.036097 47.6108717,119.79293 46.5882694,122.490166 C45.5673686,125.182293 44.4784078,127.818228 43.3247899,130.396268 C46.8809276,127.709249 50.1954522,124.85195 53.2462441,121.858427 C56.2681105,118.893852 59.0466621,115.781133 61.5580781,112.549218 C64.055882,109.336033 67.6241821,103.465526 68.2153489,102.462705 C68.8065157,101.459885 70.1382112,101.533675 70.1368608,101.483012 L125.190638,88.131354 C127.487664,87.5745383 129.674094,86.5051796 131.668253,85.0560965 C133.643696,83.6206358 135.442183,81.8037478 136.985445,79.7229258 C138.521901,77.6506178 139.81334,75.3024561 140.77639,72.7908255 C141.741141,70.2723838 142.382607,67.5717424 142.607205,64.7961778 L145.462324,29.5277767 C145.719251,26.3554597 145.508265,23.3091498 144.895724,20.5046376 C144.274676,17.6558526 143.238462,15.0437569 141.855142,12.8028716 C140.446299,10.5194163 138.673334,8.6156855 136.612816,7.24322841 C134.516566,5.83841811 132.115748,4.99212633 129.502242,4.86271351 L32.3005758,0.0420856831 Z" fill="#FFFFFF"></path>
                    <path d="M124.406297,55.1638871 C124.302903,55.3683572 124.18991,55.5675589 124.06732,55.7614931 C123.716357,56.3167042 123.274635,56.7732042 122.74214,57.1310069 C122.209644,57.4888097 121.556138,57.6677083 120.781599,57.6677083 C120.176491,57.6677083 119.55929,57.4579651 118.929977,57.0384722 C118.300665,56.5943033 117.871045,56.0144249 117.641104,55.2988194 C117.411163,54.583214 117.296194,53.892295 117.296194,53.2260417 C117.296194,53.0286333 117.308296,52.7325251 117.3325,52.3377083 C117.356704,51.9428915 117.368806,51.4617158 117.368806,50.8941667 L117.368806,46.8226389 C117.368806,46.6252305 117.362755,46.4154872 117.350653,46.1934028 C117.338551,45.9713183 117.308296,45.7615751 117.259887,45.5641667 C117.235683,45.4654625 117.193326,45.3544219 117.132815,45.2310417 C117.072305,45.1076614 117.04205,45.0212965 117.04205,44.9719444 C117.04205,44.8732402 117.102559,44.7930443 117.223581,44.7313542 C117.344603,44.669664 117.477724,44.6264816 117.62295,44.6018056 C117.768176,44.5771295 117.907349,44.5647917 118.040473,44.5647917 L118.240158,44.5647917 C118.312771,44.5647917 118.482198,44.5709606 118.748446,44.5832986 C119.014694,44.5956366 119.293039,44.6388191 119.583491,44.7128472 C119.873943,44.7868754 120.134135,44.9040848 120.364077,45.0644792 C120.594018,45.2248735 120.708986,45.4531235 120.708986,45.7492361 C120.733191,45.8232643 120.690834,45.9589805 120.581914,46.1563889 C120.472995,46.3537973 120.370128,46.6992568 120.273311,47.1927778 C120.249106,47.3901862 120.224903,47.5690848 120.200698,47.7294792 C120.176494,47.8898735 120.15229,48.0687722 120.128086,48.2661806 C120.103881,48.463589 120.079677,48.7041768 120.055473,48.9879514 C120.031269,49.271726 120.007065,49.6356922 119.98286,50.0798611 L119.98286,52.3006944 C119.98286,52.6955112 119.994962,53.096491 120.019167,53.5036458 C120.043371,53.9108006 120.09783,54.2809358 120.182545,54.6140625 C120.26726,54.9471892 120.406433,55.2186216 120.600068,55.4283681 C120.793702,55.6381145 121.047844,55.7429861 121.3625,55.7429861 C121.822382,55.7429861 122.185442,55.6072699 122.451689,55.3358333 C122.717937,55.0643968 122.92367,54.8299778 123.068896,54.6325694 C123.335144,54.2624287 123.540878,53.7997597 123.686104,53.2445486 C123.789354,52.8498127 123.886487,52.4457264 123.977502,52.0322835 C123.987581,51.1949906 124.07803,50.3467833 124.248851,49.4876389 C124.430384,48.5746251 124.65427,47.6986385 124.920518,46.8596528 C125.186766,46.0206671 125.489315,45.2680589 125.828176,44.6018056 C126.167036,43.9355522 126.49379,43.417363 126.808446,43.0472222 C127.123102,42.7017575 127.47406,42.4611697 127.861329,42.3254514 C128.248598,42.1897331 128.599555,42.121875 128.914212,42.121875 C129.301481,42.121875 129.688744,42.2205777 130.076014,42.4179861 C130.463283,42.6153945 130.838444,42.8621513 131.201509,43.1582639 C131.564574,43.4543765 131.921582,43.7936671 132.272545,44.1761458 C132.623508,44.5586246 132.956312,44.9349287 133.270968,45.3050694 C133.513012,45.576506 133.694541,46.0144993 133.815563,46.6190625 C133.936585,47.2236257 134.033401,47.8343488 134.106014,48.45125 C134.154422,48.7967147 134.190728,49.1668499 134.214932,49.5616667 C134.239137,49.9564835 134.251239,50.3636322 134.251239,50.783125 C134.614304,50.4870124 134.904751,50.1723975 135.12259,49.8392708 C135.340429,49.5061442 135.515908,49.1915293 135.649032,48.8954167 C135.782155,48.5993041 135.891073,48.3217027 135.975788,48.0626042 C136.060503,47.8035056 136.151268,47.5999313 136.248086,47.451875 C136.344903,47.2791427 136.514331,47.1927778 136.756374,47.1927778 C136.877396,47.1927778 136.962109,47.2668048 137.010518,47.4148611 C137.058927,47.5629174 137.083131,47.6862958 137.083131,47.785 C137.058926,48.5499575 136.89555,49.2347076 136.592995,49.8392708 C136.290441,50.443834 135.969739,50.9681922 135.630878,51.4123611 C135.437244,51.6837977 135.225459,51.9305544 134.995518,52.1526389 C134.765577,52.3747233 134.529588,52.5844666 134.287545,52.781875 C134.263341,53.2013678 134.245188,53.4913071 134.233086,53.6517014 C134.220983,53.8120957 134.20283,53.941643 134.178626,54.0403472 C134.130217,54.410488 134.009198,54.8793259 133.815563,55.446875 C133.621928,56.0144241 133.349634,56.5696269 132.998671,57.1125 C132.647708,57.6553731 132.224139,58.1180421 131.72795,58.5005208 C131.231762,58.8829996 130.656918,59.0742361 130.003401,59.0742361 C129.785562,59.0742361 129.537471,59.0495604 129.259122,59.0002083 C128.980772,58.9508562 128.696375,58.8829981 128.405923,58.7966319 C128.115472,58.7102658 127.837126,58.6115631 127.570878,58.5005208 C127.304631,58.3894786 127.074693,58.2722691 126.881059,58.1488889 C126.27595,57.8034242 125.779769,57.3962755 125.3925,56.9274306 C125.005231,56.4585856 124.708732,55.9589031 124.502995,55.4283681 C124.468939,55.3405456 124.436706,55.2523853 124.406297,55.1638871 L124.406297,55.1638871 Z M102.648815,54.1083003 C102.636394,54.1527509 102.623553,54.1979587 102.610293,54.2439236 C102.42876,54.8731629 102.162517,55.4900548 101.811554,56.0946181 C101.460591,56.6991813 101.012818,57.2297084 100.468221,57.6862153 C99.9236234,58.1427222 99.2640654,58.3709722 98.489527,58.3709722 C97.7391929,58.3709722 97.1401449,58.1488911 96.6923649,57.7047222 C96.2445848,57.2605533 95.9057294,56.6498303 95.6757883,55.8725347 C95.4458472,55.0952392 95.3006234,54.1637323 95.2401126,53.0779861 C95.1796018,51.9922399 95.1493468,50.8078073 95.1493468,49.5246528 L95.1493468,48.6918403 C95.1493468,48.3587136 95.1614488,48.0687744 95.1856532,47.8220139 C94.8952013,48.364887 94.6047537,49.0496371 94.3143018,49.8762847 C94.0238499,50.7029324 93.7636573,51.5850879 93.5337162,52.5227778 C93.3037751,53.4604677 93.1161944,54.4166502 92.9709685,55.3913542 C92.8257425,56.3660581 92.7410286,57.2852272 92.7168243,58.1488889 C92.4747811,58.198241 92.2145885,58.2599302 91.9362387,58.3339583 C91.657889,58.4079865 91.3371865,58.445 90.9741216,58.445 C90.8288957,58.445 90.6594679,58.4326622 90.4658333,58.4079861 C90.2721987,58.3833101 90.078567,58.3339587 89.8849324,58.2599306 C89.6912978,58.1859024 89.5279211,58.0810308 89.3947973,57.9453125 C89.2616735,57.8095942 89.1951126,57.6306956 89.1951126,57.4086111 C89.1951126,57.359259 89.2374695,57.2482185 89.3221847,57.0754861 C89.4068998,56.9027538 89.4492568,56.5572943 89.4492568,56.0390972 L89.4492568,34.7561111 C89.4492568,34.4106464 89.4068998,34.1762275 89.3221847,34.0528472 C89.2374695,33.929467 89.1951126,33.7814129 89.1951126,33.6086806 C89.1951126,33.5099764 89.2798265,33.4297804 89.4492568,33.3680903 C89.618687,33.3064002 89.8123187,33.2570488 90.0301577,33.2200347 C90.2479966,33.1830206 90.4718832,33.158345 90.7018243,33.1460069 C90.9317654,33.1336689 91.1193461,33.1275 91.2645721,33.1275 C91.8938845,33.1275 92.5352895,33.2632162 93.1888063,33.5346528 C93.0677847,34.2009061 92.9528159,35.0830616 92.8438964,36.1811458 C92.7349769,37.27923 92.6321101,38.4143113 92.5352928,39.5864236 C92.4384755,40.758536 92.3658636,41.8812794 92.317455,42.9546875 C92.2690463,44.0280956 92.2448423,44.8608998 92.2448423,45.453125 L92.2448423,45.7307292 C92.2448423,45.8417714 92.2387914,46.1255417 92.2266892,46.5820486 C92.214587,47.0385555 92.202485,47.7479813 92.1903829,48.7103472 C92.1782807,49.6727131 92.1601277,51.0298755 92.1359234,52.781875 C92.1359234,52.757199 92.1903823,52.52278 92.2993018,52.0786111 C92.4082213,51.6344422 92.547394,51.0792394 92.7168243,50.4129861 C92.8862546,49.7467328 93.0859373,49.0311381 93.3158784,48.2661806 C93.5458195,47.501223 93.7878591,46.7917973 94.0420045,46.1378819 C94.2961499,45.4839666 94.5563425,44.9411017 94.8225901,44.5092708 C95.0888377,44.07744 95.3429793,43.8615278 95.5850225,43.8615278 C95.8512701,43.8615278 96.2203805,43.9170481 96.6923649,44.0280903 C97.1643492,44.1391325 97.4608477,44.330369 97.5818694,44.6018056 C97.6786867,44.8979181 97.7815535,45.1076614 97.890473,45.2310417 C97.9993924,45.3544219 98.0962083,45.4531246 98.1809234,45.5271528 C98.2656386,45.6011809 98.3382504,45.675208 98.3987613,45.7492361 C98.4592721,45.8232643 98.489527,45.9343048 98.489527,46.0823611 C98.4653227,46.1563893 98.4108638,46.4031461 98.3261486,46.8226389 C98.2414335,47.2421317 98.1567196,47.7664899 98.0720045,48.3957292 C97.9872894,49.0249684 97.9086265,49.7158874 97.8360135,50.4685069 C97.7634005,51.2211264 97.7270946,51.9675657 97.7270946,52.7078472 C97.7270946,53.6948892 97.8118085,54.5462001 97.9812387,55.2618056 C98.150669,55.977411 98.4774225,56.3352083 98.961509,56.3352083 C99.4455955,56.3352083 99.8449609,56.1871543 100.159617,55.8910417 C100.474273,55.5949291 100.734466,55.2247939 100.940203,54.780625 C101.145939,54.3364561 101.303265,53.8614493 101.412185,53.3555903 C101.521104,52.8497313 101.611869,52.3994001 101.684482,52.0045833 C101.805504,51.4863863 101.987033,51.2272917 102.229077,51.2272917 C102.324334,51.2272917 102.409522,51.2399262 102.48464,51.2651953 C102.508836,50.0301504 102.544668,48.7713937 102.59214,47.4888889 C102.640548,46.1810583 102.688956,44.97195 102.737365,43.8615278 C102.737365,43.6641194 102.543733,43.5284031 102.156464,43.454375 C101.769195,43.3803469 101.333523,43.3063198 100.849437,43.2322917 C100.36535,43.1582635 99.9296791,43.041054 99.5424099,42.8806597 C99.1551407,42.7202654 98.961509,42.4550019 98.961509,42.0848611 C98.961509,41.7640725 99.2761605,41.5790049 99.905473,41.5296528 C100.534785,41.4803007 101.466638,41.455625 102.701059,41.455625 C102.797876,41.455625 102.864437,41.3075709 102.900743,41.0114583 C102.93705,40.7153457 102.961254,40.3390416 102.973356,39.8825347 C102.985458,39.4260278 102.99756,38.9386831 103.009662,38.4204861 C103.021764,37.9022891 103.039917,37.4149444 103.064122,36.9584375 C103.088326,36.5019306 103.130683,36.1256265 103.191194,35.8295139 C103.251705,35.5334013 103.330367,35.3853472 103.427185,35.3853472 C103.548206,35.3853472 103.766042,35.4100229 104.080698,35.459375 C104.395354,35.5087271 104.722108,35.5765852 105.060968,35.6629514 C105.399829,35.7493176 105.696328,35.8541892 105.950473,35.9775694 C106.204618,36.1009497 106.331689,36.2366659 106.331689,36.3847222 L105.93232,41.1965278 C105.93232,41.3445841 106.059391,41.4494557 106.313536,41.5111458 C106.567681,41.572836 106.894435,41.6098495 107.293806,41.6221875 C107.693178,41.6345255 108.116747,41.6406944 108.564527,41.6406944 C109.012307,41.6406944 109.435876,41.677708 109.835248,41.7517361 C110.234619,41.8257643 110.561373,41.9429737 110.815518,42.1033681 C111.069663,42.2637624 111.196734,42.5043502 111.196734,42.8251389 C111.196734,42.874491 111.17253,42.9546869 111.124122,43.0657292 C111.075713,43.1767714 111.015203,43.2322917 110.94259,43.2322917 C110.894181,43.2322917 110.827621,43.1952781 110.742905,43.12125 C110.65819,43.0472219 110.434304,43.0102083 110.071239,43.0102083 C109.974421,43.0102083 109.708178,43.0225462 109.2725,43.0472222 C108.836822,43.0718983 108.376947,43.1089118 107.89286,43.1582639 C107.408774,43.207616 106.967052,43.2631363 106.56768,43.3248264 C106.168309,43.3865165 105.944422,43.4667125 105.896014,43.5654167 C105.871809,43.6147688 105.841554,43.904708 105.805248,44.4352431 C105.768941,44.9657781 105.732635,45.6628661 105.696329,46.5265278 C105.660022,47.3901895 105.629767,48.3833856 105.605563,49.5061458 C105.581359,50.6289061 105.569257,51.8071698 105.569257,53.0409722 C105.569257,53.5098172 105.593461,53.9663172 105.641869,54.4104861 C105.690278,54.854655 105.76289,55.2556348 105.859707,55.6134375 C105.956525,55.9712402 106.083595,56.2611794 106.240923,56.4832639 C106.398252,56.7053483 106.585832,56.8163889 106.803671,56.8163889 C107.118327,56.8163889 107.408775,56.6806727 107.675023,56.4092361 C107.94127,56.1377996 108.18331,55.7676644 108.401149,55.2988194 C108.618988,54.8299745 108.812619,54.2994474 108.98205,53.7072222 C109.15148,53.114997 109.296704,52.5104429 109.417725,51.8935417 C109.490338,51.5234009 109.575052,51.2581374 109.671869,51.0977431 C109.768687,50.9373487 109.91391,50.8571528 110.107545,50.8571528 C110.276975,50.8571528 110.42825,50.9126731 110.561374,51.0237153 C110.694498,51.1347575 110.761059,51.3876832 110.761059,51.7825 C110.761059,52.0292605 110.748957,52.1896524 110.724752,52.2636806 C110.652139,52.7078494 110.512966,53.3185725 110.30723,54.0958681 C110.101493,54.8731636 109.823147,55.6381097 109.472185,56.3907292 C109.121222,57.1433487 108.691602,57.8034231 108.183311,58.3709722 C107.67502,58.9385214 107.082023,59.2222917 106.404302,59.2222917 C105.750785,59.2222917 105.181992,59.0310552 104.697905,58.6485764 C104.213819,58.2660976 103.808403,57.7355705 103.481644,57.0569792 C103.154886,56.3783878 102.906795,55.5764282 102.737365,54.6510764 C102.704699,54.4726729 102.675183,54.2917476 102.648815,54.1083003 L102.648815,54.1083003 Z M76.029347,50.7958161 C75.9528572,50.8848811 75.8999744,51.0040302 75.8706982,51.1532639 L75.7980856,51.5234028 C75.677064,52.115628 75.5439422,52.6893375 75.3987162,53.2445486 C75.2534903,53.7997597 75.0477566,54.2624287 74.781509,54.6325694 C74.6362831,54.8299778 74.4305494,55.0643968 74.1643018,55.3358333 C73.8980542,55.6072699 73.5349948,55.7429861 73.0751126,55.7429861 C72.7604564,55.7429861 72.5063148,55.6381145 72.3126802,55.4283681 C72.1190456,55.2186216 71.9798728,54.9471892 71.8951577,54.6140625 C71.8104425,54.2809358 71.7559836,53.9108006 71.7317793,53.5036458 C71.707575,53.096491 71.695473,52.6955112 71.695473,52.3006944 L71.695473,50.0798611 C71.7196773,49.6356922 71.7438813,49.271726 71.7680856,48.9879514 C71.7922899,48.7041768 71.8164939,48.463589 71.8406982,48.2661806 C71.8649025,48.0687722 71.8891065,47.8898735 71.9133108,47.7294792 C71.9375151,47.5690848 71.9617191,47.3901862 71.9859234,47.1927778 C72.0827407,46.6992568 72.1856076,46.3537973 72.294527,46.1563889 C72.4034465,45.9589805 72.4458034,45.8232643 72.4215991,45.7492361 C72.4215991,45.4531235 72.3066303,45.2248735 72.0766892,45.0644792 C71.8467481,44.9040848 71.5865555,44.7868754 71.2961036,44.7128472 C71.0056517,44.6388191 70.7273061,44.5956366 70.4610586,44.5832986 C70.194811,44.5709606 70.0253832,44.5647917 69.9527703,44.5647917 L69.7530856,44.5647917 C69.6199618,44.5647917 69.480789,44.5771295 69.3355631,44.6018056 C69.1903371,44.6264816 69.0572153,44.669664 68.9361937,44.7313542 C68.8151721,44.7930443 68.7546622,44.8732402 68.7546622,44.9719444 C68.7546622,45.0212965 68.7849171,45.1076614 68.8454279,45.2310417 C68.9059387,45.3544219 68.9482957,45.4654625 68.9725,45.5641667 C69.0209087,45.7615751 69.0511636,45.9713183 69.0632658,46.1934028 C69.0753679,46.4154872 69.0814189,46.6252305 69.0814189,46.8226389 L69.0814189,50.8941667 C69.0814189,51.0354983 69.0806685,51.1714737 69.0791675,51.3020933 C69.0680127,51.3015774 69.056661,51.3013194 69.0451126,51.3013194 C68.9482953,51.3013194 68.8454285,51.332164 68.736509,51.3938542 C68.6275895,51.4555443 68.5489267,51.6221051 68.500518,51.8935417 C68.4521094,52.1896543 68.3613445,52.6461543 68.2282207,53.2630556 C68.0950969,53.8799568 67.9196182,54.4906798 67.7017793,55.0952431 C67.4839404,55.6998063 67.2297987,56.2303334 66.9393468,56.6868403 C66.6488949,57.1433472 66.3221415,57.3715972 65.9590766,57.3715972 C65.7412376,57.3715972 65.5597079,57.2112053 65.414482,56.8904167 C65.269256,56.569628 65.1603382,56.1994928 65.0877252,55.78 C65.0151122,55.3605072 64.9667043,54.9533585 64.9425,54.5585417 C64.9182957,54.1637249 64.9061937,53.8922924 64.9061937,53.7442361 C64.9061937,51.8935324 65.1240294,50.1168835 65.5597072,48.4142361 C65.5597072,48.364884 65.5839112,48.2661813 65.6323198,48.118125 C65.6807285,47.9700687 65.7412384,47.8035079 65.8138514,47.6184375 C65.8864643,47.4333671 65.9469742,47.2482995 65.9953829,47.0632292 C66.0437915,46.8781588 66.0679955,46.7362736 66.0679955,46.6375694 C66.0679955,46.3414569 65.9046188,46.1132068 65.5778604,45.9528125 C65.251102,45.7924182 64.8698896,45.6752087 64.4342117,45.6011806 C63.9985339,45.5271524 63.5628625,45.477801 63.1271847,45.453125 C62.6915068,45.428449 62.3768553,45.4037733 62.1832207,45.3790972 L62.0743018,45.3790972 C61.8564629,45.3297451 61.7112391,45.2865627 61.6386261,45.2495486 C61.5660132,45.2125345 61.5297072,45.1076629 61.5297072,44.9349306 L61.5297072,44.7128472 L61.5660135,43.8985417 L61.5660135,43.7134722 C61.5660135,43.1705991 61.3602798,42.8991667 60.9488063,42.8991667 C60.8981007,42.8991667 60.8452276,42.9013767 60.7901868,42.9057968 L60.7901868,42.9057968 C60.7991163,42.8732211 60.8035811,42.8463352 60.8035811,42.8251389 C60.8035811,42.5043502 60.6765103,42.2637624 60.4223649,42.1033681 C60.1682195,41.9429737 59.841466,41.8257643 59.4420946,41.7517361 C59.0427232,41.677708 58.6191539,41.6406944 58.1713739,41.6406944 C57.7235939,41.6406944 57.3000245,41.6345255 56.9006532,41.6221875 C56.5012818,41.6098495 56.1745283,41.572836 55.9203829,41.5111458 C55.6662375,41.4494557 55.5391667,41.3445841 55.5391667,41.1965278 L55.938536,36.3847222 C55.938536,36.2366659 55.8114652,36.1009497 55.5573198,35.9775694 C55.3031744,35.8541892 55.0066759,35.7493176 54.6678153,35.6629514 C54.3289548,35.5765852 54.0022013,35.5087271 53.687545,35.459375 C53.3728888,35.4100229 53.1550532,35.3853472 53.0340315,35.3853472 C52.9372142,35.3853472 52.8585514,35.5334013 52.7980405,35.8295139 C52.7375297,36.1256265 52.6951728,36.5019306 52.6709685,36.9584375 C52.6467641,37.4149444 52.6286112,37.9022891 52.616509,38.4204861 C52.6044068,38.9386831 52.5923049,39.4260278 52.5802027,39.8825347 C52.5681005,40.3390416 52.5438966,40.7153457 52.5075901,41.0114583 C52.4712836,41.3075709 52.4047227,41.455625 52.3079054,41.455625 C51.0734848,41.455625 50.1416323,41.4803007 49.5123198,41.5296528 C48.8830074,41.5790049 48.5683559,41.7640725 48.5683559,42.0848611 C48.5683559,42.4550019 48.7619876,42.7202654 49.1492568,42.8806597 C49.536526,43.041054 49.9721973,43.1582635 50.4562838,43.2322917 C50.9403703,43.3063198 51.3760416,43.3803469 51.7633108,43.454375 C52.15058,43.5284031 52.3442117,43.6641194 52.3442117,43.8615278 C52.2958031,44.97195 52.2473951,46.1810583 52.1989865,47.4888889 C52.1505778,48.7967195 52.1142719,50.0798548 52.0900676,51.3383333 L52.0900676,51.6714583 C52.0900676,52.7325285 52.1747814,53.7257245 52.3442117,54.6510764 C52.513642,55.5764282 52.7617326,56.3783878 53.088491,57.0569792 C53.4152494,57.7355705 53.8206657,58.2660976 54.3047523,58.6485764 C54.7888388,59.0310552 55.3576319,59.2222917 56.0111486,59.2222917 C56.6888698,59.2222917 57.2818668,58.9385214 57.7901577,58.3709722 C58.2984485,57.8034231 58.7280688,57.1433487 59.0790315,56.3907292 C59.4299942,55.6381097 59.7083398,54.8731636 59.9140766,54.0958681 C59.9454297,53.9774126 59.9752369,53.8628257 60.0034983,53.7521072 C60.0896952,53.5167238 60.1688067,53.2488346 60.2408333,52.9484375 C60.3739571,52.3932264 60.4949769,51.7516587 60.6038964,51.0237153 C60.7128159,50.2957718 60.8156827,49.5369947 60.9125,48.7473611 L61.0577252,47.5629167 C61.0819296,47.4642125 61.1303375,47.3778476 61.2029505,47.3038194 C61.2755634,47.2297913 61.4570931,47.1927778 61.747545,47.1927778 C61.9169753,47.1927778 62.098505,47.2174535 62.2921396,47.2668056 C62.4857742,47.3161577 62.5825901,47.439536 62.5825901,47.6369444 C62.5583858,48.2785217 62.5099778,48.9262583 62.4373649,49.5801736 C62.3647519,50.2340889 62.3284459,50.8818255 62.3284459,51.5234028 C62.3284459,52.0909519 62.3647519,52.8003777 62.4373649,53.6517014 C62.5099778,54.5030251 62.6673036,55.3173225 62.9093468,56.0946181 C63.1513901,56.8719136 63.5023476,57.5381569 63.9622297,58.0933681 C64.4221119,58.6485792 65.0393129,58.9261806 65.8138514,58.9261806 C66.5399811,58.9261806 67.1390292,58.6424102 67.6110135,58.0748611 C68.0829979,57.507312 68.4581593,56.8595754 68.736509,56.1316319 C68.9256373,55.6370216 69.0756538,55.1595042 69.1865604,54.6990735 L69.1865604,54.6990735 C69.2331288,54.8970244 69.2888474,55.0969396 69.3537162,55.2988194 C69.5836573,56.0144249 70.0132776,56.5943033 70.6425901,57.0384722 C71.2719025,57.4579651 71.8891036,57.6677083 72.4942117,57.6677083 C73.2687501,57.6677083 73.9222571,57.4888097 74.4547523,57.1310069 C74.9872474,56.7732042 75.4289697,56.3167042 75.7799324,55.7614931 C75.9041952,55.5649136 76.0185961,55.3629218 76.1231355,55.155517 C76.1237027,55.1601048 76.1242717,55.1646894 76.1248423,55.1692708 C76.2216596,55.9465664 76.3971384,56.6189786 76.6512838,57.1865278 C76.9054292,57.7540769 77.2563867,58.1982391 77.7041667,58.5190278 C78.1519467,58.8398164 78.7146888,59.024884 79.3924099,59.0742361 C79.6586575,59.0742361 79.8643912,59.1112496 80.0096171,59.1852778 C80.1548431,59.2593059 80.3242708,59.2963194 80.5179054,59.2963194 C80.8809703,59.2963194 81.2077238,59.1667721 81.4981757,58.9076736 C81.7886276,58.6485751 82.0488202,58.346298 82.2787613,58.0008333 C82.5087024,57.6553686 82.708385,57.2914024 82.8778153,56.9089236 C83.0472456,56.5264448 83.1924694,56.2241678 83.313491,56.0020833 C83.313491,56.5449564 83.301389,57.0754835 83.2771847,57.5936806 C83.2529804,58.1118776 83.2166744,58.6300669 83.1682658,59.1482639 L83.1682658,59.1852778 C82.9020182,59.3826862 82.5934177,59.6356119 82.242455,59.9440625 C81.8914922,60.2525131 81.5707897,60.5547902 81.2803378,60.8509028 C80.7236384,61.4184519 80.2093042,62.0661885 79.7373198,62.7941319 C79.2653355,63.5220754 78.8599191,64.2870215 78.5210586,65.0889931 C78.182198,65.8909647 77.9220054,66.7175999 77.740473,67.5689236 C77.5589405,68.4202473 77.4681757,69.2530515 77.4681757,70.0673611 C77.4681757,70.8816707 77.6436544,71.5294073 77.9946171,72.0105903 C78.3455798,72.4917732 78.7933531,72.8557395 79.3379505,73.1025 C79.8825478,73.3492605 80.4876468,73.5034835 81.1532658,73.5651736 C81.8188847,73.6268637 82.4542387,73.6577083 83.0593468,73.6577083 C83.7612723,73.6577083 84.3119124,73.4294583 84.7112838,72.9729514 C85.1106552,72.5164445 85.4192557,71.9118903 85.6370946,71.1592708 C85.8549335,70.4066513 85.9941063,69.5553404 86.0546171,68.6053125 C86.1151279,67.6552846 86.1453829,66.6867642 86.1453829,65.6997222 L86.1453829,62.775625 C86.1453829,61.763907 86.1332809,60.9249339 86.1090766,60.2586806 L86.1453829,59.8145139 C86.1453829,59.6664576 86.2058928,59.5924306 86.3269144,59.5924306 L87.0530405,59.6664583 C87.2466751,59.6664583 87.4524088,59.617107 87.6702477,59.5184028 C87.8880867,59.4196986 87.9970045,59.2469688 87.9970045,59.0002083 C87.9970045,58.7287718 87.8094238,58.5251974 87.4342568,58.3894792 C87.0590897,58.2537609 86.7625912,58.1859028 86.5447523,58.1859028 C86.5205479,58.1859028 86.484242,58.1920717 86.4358333,58.2044097 C86.3874247,58.2167477 86.3390168,58.2229167 86.2906081,58.2229167 L86.1453829,58.2229167 C86.1211786,57.877452 86.1090766,57.4394587 86.1090766,56.9089236 L86.1090766,55.6319444 C86.1090766,55.2124516 86.1151276,54.7374448 86.1272297,54.2069097 C86.1393319,53.6763747 86.1574849,53.1581854 86.1816892,52.6523264 C86.2058935,52.1464674 86.2421995,51.6776295 86.2906081,51.2457986 C86.3390168,50.8139677 86.3995267,50.4993528 86.4721396,50.3019444 C86.496344,50.2525923 86.5629049,50.1353829 86.6718243,49.9503125 C86.7807438,49.7652421 86.8352027,49.6480327 86.8352027,49.5986806 C86.8352027,49.4012722 86.7625908,49.2717248 86.6173649,49.2100347 C86.4721389,49.1483446 86.3087622,49.0928243 86.1272297,49.0434722 C85.9456973,48.9941201 85.7823205,48.9324309 85.6370946,48.8584028 C85.4918686,48.7843746 85.4192568,48.6486584 85.4192568,48.45125 C85.4192568,47.957729 85.4495117,47.5505803 85.5100225,47.2297917 C85.5705333,46.909003 85.6007883,46.5512057 85.6007883,46.1563889 C85.6007883,45.5888398 85.5160744,45.1138329 85.3466441,44.7313542 C85.1772139,44.3488754 84.9472762,44.0404294 84.6568243,43.8060069 C84.3663724,43.5715845 84.015415,43.380348 83.6039414,43.2322917 C83.1924679,43.0842354 82.7446946,42.960857 82.2606081,42.8621528 C82.1637908,42.8374767 82.024618,42.7819565 81.8430856,42.6955903 C81.6615531,42.6092241 81.4800234,42.5228592 81.298491,42.4364931 C81.1169586,42.3501269 80.9475308,42.2699309 80.7902027,42.1959028 C80.6328746,42.1218746 80.5058038,42.0848611 80.4089865,42.0848611 C79.5376308,42.0848611 78.8175629,42.4118139 78.2487613,43.0657292 C77.6799596,43.7196445 77.2261353,44.5586176 76.8872748,45.5826736 C76.5484142,46.6067297 76.3124256,47.735642 76.1793018,48.9694444 C76.1126124,49.587527 76.0626276,50.1963161 76.029347,50.7958161 L76.029347,50.7958161 Z M60.1269891,43.0394357 C60.0139874,43.0199508 59.8643532,43.0102083 59.6780856,43.0102083 C59.5812683,43.0102083 59.3150247,43.0225462 58.8793468,43.0472222 C58.443669,43.0718983 57.9837937,43.1089118 57.4997072,43.1582639 C57.0156207,43.207616 56.5738984,43.2631363 56.174527,43.3248264 C55.7751557,43.3865165 55.551269,43.4667125 55.5028604,43.5654167 C55.478656,43.6147688 55.4484011,43.904708 55.4120946,44.4352431 C55.3757881,44.9657781 55.3394822,45.6628661 55.3031757,46.5265278 C55.2668692,47.3901895 55.2366142,48.3833856 55.2124099,49.5061458 C55.1882056,50.6289061 55.1761036,51.8071698 55.1761036,53.0409722 C55.1761036,53.5098172 55.2003076,53.9663172 55.2487162,54.4104861 C55.2971249,54.854655 55.3697368,55.2556348 55.4665541,55.6134375 C55.5633714,55.9712402 55.6904422,56.2611794 55.8477703,56.4832639 C56.0050984,56.7053483 56.1926791,56.8163889 56.410518,56.8163889 C56.7251742,56.8163889 57.0156218,56.6806727 57.2818694,56.4092361 C57.5481169,56.1377996 57.7901566,55.7676644 58.0079955,55.2988194 C58.2258344,54.8299745 58.4194661,54.2994474 58.5888964,53.7072222 C58.7583267,53.114997 58.9035504,52.5104429 59.0245721,51.8935417 C59.0675887,51.6742666 59.1148522,51.4917982 59.1663629,51.3461347 C59.1986864,50.9378431 59.2240353,50.5651059 59.2424099,50.2279167 L59.2424099,49.9688194 C59.2424099,49.8454392 59.2484609,49.6973851 59.2605631,49.5246528 C59.2726652,49.3519204 59.2787162,49.1421772 59.2787162,48.8954167 L59.2787162,47.9330556 L59.2787162,47.0817361 C59.2787162,46.7856235 59.2545123,46.4648397 59.2061036,46.119375 L59.0971847,43.9355556 C59.0971847,43.7874993 59.1576946,43.651783 59.2787162,43.5284028 C59.3997378,43.4050225 59.5570636,43.293982 59.7506982,43.1952778 C59.8714248,43.133738 59.9968546,43.0817909 60.1269891,43.0394357 L60.1269891,43.0394357 Z M44.0663739,50.8801981 C44.0083752,50.8648345 43.9478648,50.8571528 43.8848423,50.8571528 C43.6912077,50.8571528 43.545984,50.9373487 43.4491667,51.0977431 C43.3523494,51.2581374 43.2676355,51.5234009 43.1950225,51.8935417 C43.0740009,52.5104429 42.9287771,53.114997 42.7593468,53.7072222 C42.5899166,54.2994474 42.3962849,54.8299745 42.1784459,55.2988194 C41.960607,55.7676644 41.7185674,56.1377996 41.4523198,56.4092361 C41.1860722,56.6806727 40.8956247,56.8163889 40.5809685,56.8163889 C40.3631295,56.8163889 40.1755488,56.7053483 40.0182207,56.4832639 C39.8608926,56.2611794 39.7338218,55.9712402 39.6370045,55.6134375 C39.5401872,55.2556348 39.4675753,54.854655 39.4191667,54.4104861 C39.370758,53.9663172 39.3465541,53.5098172 39.3465541,53.0409722 C39.3465541,51.8071698 39.358656,50.6289061 39.3828604,49.5061458 C39.4070647,48.3833856 39.4373196,47.3901895 39.4736261,46.5265278 C39.5099326,45.6628661 39.5462386,44.9657781 39.582545,44.4352431 C39.6188515,43.904708 39.6491065,43.6147688 39.6733108,43.5654167 C39.7217195,43.4667125 39.9456061,43.3865165 40.3449775,43.3248264 C40.7443488,43.2631363 41.1860712,43.207616 41.6701577,43.1582639 C42.1542442,43.1089118 42.6141194,43.0718983 43.0497973,43.0472222 C43.4854752,43.0225462 43.7517187,43.0102083 43.848536,43.0102083 C44.2116009,43.0102083 44.4354876,43.0472219 44.5202027,43.12125 C44.6049178,43.1952781 44.6714787,43.2322917 44.7198874,43.2322917 C44.7925004,43.2322917 44.8530103,43.1767714 44.9014189,43.0657292 C44.9498276,42.9546869 44.9740315,42.874491 44.9740315,42.8251389 C44.9740315,42.5043502 44.8469607,42.2637624 44.5928153,42.1033681 C44.3386699,41.9429737 44.0119164,41.8257643 43.612545,41.7517361 C43.2131737,41.677708 42.7896043,41.6406944 42.3418243,41.6406944 C41.8940443,41.6406944 41.470475,41.6345255 41.0711036,41.6221875 C40.6717322,41.6098495 40.3449787,41.572836 40.0908333,41.5111458 C39.8366879,41.4494557 39.7096171,41.3445841 39.7096171,41.1965278 L40.1089865,36.3847222 C40.1089865,36.2366659 39.9819157,36.1009497 39.7277703,35.9775694 C39.4736249,35.8541892 39.1771263,35.7493176 38.8382658,35.6629514 C38.4994052,35.5765852 38.1726517,35.5087271 37.8579955,35.459375 C37.5433393,35.4100229 37.3255036,35.3853472 37.204482,35.3853472 C37.1076647,35.3853472 37.0290018,35.5334013 36.968491,35.8295139 C36.9079802,36.1256265 36.8656232,36.5019306 36.8414189,36.9584375 C36.8172146,37.4149444 36.7990616,37.9022891 36.7869595,38.4204861 C36.7748573,38.9386831 36.7627553,39.4260278 36.7506532,39.8825347 C36.738551,40.3390416 36.714347,40.7153457 36.6780405,41.0114583 C36.6417341,41.3075709 36.5751732,41.455625 36.4783559,41.455625 C35.2439353,41.455625 34.3120827,41.4803007 33.6827703,41.5296528 C33.0534578,41.5790049 32.7388063,41.7640725 32.7388063,42.0848611 C32.7388063,42.4550019 32.932438,42.7202654 33.3197072,42.8806597 C33.7069764,43.041054 34.1426477,43.1582635 34.6267342,43.2322917 C35.1108207,43.3063198 35.5464921,43.3803469 35.9337613,43.454375 C36.3210305,43.5284031 36.5146622,43.6641194 36.5146622,43.8615278 C36.4662535,44.97195 36.4178456,46.1810583 36.3694369,47.4888889 C36.3210283,48.7967195 36.2847223,50.0798548 36.260518,51.3383333 L36.260518,51.6714583 C36.260518,52.7325285 36.3452319,53.7257245 36.5146622,54.6510764 C36.6840924,55.5764282 36.9321831,56.3783878 37.2589414,57.0569792 C37.5856998,57.7355705 37.9911162,58.2660976 38.4752027,58.6485764 C38.9592892,59.0310552 39.5280823,59.2222917 40.1815991,59.2222917 C40.8593202,59.2222917 41.4523173,58.9385214 41.9606081,58.3709722 C42.4688989,57.8034231 42.8985193,57.1433487 43.249482,56.3907292 C43.5905003,55.6594349 43.8629583,54.9165027 44.0668637,54.1619116 C44.1239875,54.5336946 44.2145898,54.9126628 44.3386712,55.2988194 C44.5686123,56.0144249 44.9982326,56.5943033 45.627545,57.0384722 C46.2568575,57.4579651 46.8740585,57.6677083 47.4791667,57.6677083 C48.2537051,57.6677083 48.9072121,57.4888097 49.4397072,57.1310069 C49.9722024,56.7732042 50.4139247,56.3167042 50.7648874,55.7614931 C51.1158501,55.2062819 51.3881447,54.6078967 51.5817793,53.9663194 C51.7754139,53.3247422 51.9085357,52.7078502 51.9811486,52.115625 L52.0537613,51.5604167 L52.0537613,51.3753472 C52.0537613,50.8571502 51.8722315,50.5980556 51.5091667,50.5980556 C51.1461018,50.5980556 50.9282661,50.7831231 50.8556532,51.1532639 L50.7830405,51.5234028 C50.6620189,52.115628 50.5288971,52.6893375 50.3836712,53.2445486 C50.2384452,53.7997597 50.0327115,54.2624287 49.766464,54.6325694 C49.621238,54.8299778 49.4155043,55.0643968 49.1492568,55.3358333 C48.8830092,55.6072699 48.5199497,55.7429861 48.0600676,55.7429861 C47.7454113,55.7429861 47.4912697,55.6381145 47.2976351,55.4283681 C47.1040005,55.2186216 46.9648278,54.9471892 46.8801126,54.6140625 C46.7953975,54.2809358 46.7409386,53.9108006 46.7167342,53.5036458 C46.6925299,53.096491 46.6804279,52.6955112 46.6804279,52.3006944 L46.6804279,50.0798611 C46.7046323,49.6356922 46.7288362,49.271726 46.7530405,48.9879514 C46.7772449,48.7041768 46.8014488,48.463589 46.8256532,48.2661806 C46.8498575,48.0687722 46.8740614,47.8898735 46.8982658,47.7294792 C46.9224701,47.5690848 46.9466741,47.3901862 46.9708784,47.1927778 C47.0676957,46.6992568 47.1705625,46.3537973 47.279482,46.1563889 C47.3884014,45.9589805 47.4307584,45.8232643 47.4065541,45.7492361 C47.4065541,45.4531235 47.2915852,45.2248735 47.0616441,45.0644792 C46.8317031,44.9040848 46.5715105,44.7868754 46.2810586,44.7128472 C45.9906067,44.6388191 45.7122611,44.5956366 45.4460135,44.5832986 C45.1797659,44.5709606 45.0103382,44.5647917 44.9377252,44.5647917 L44.7380405,44.5647917 C44.6049168,44.5647917 44.465744,44.5771295 44.320518,44.6018056 C44.1752921,44.6264816 44.0421703,44.669664 43.9211486,44.7313542 C43.800127,44.7930443 43.7396171,44.8732402 43.7396171,44.9719444 C43.7396171,45.0212965 43.7698721,45.1076614 43.8303829,45.2310417 C43.8908937,45.3544219 43.9332506,45.4654625 43.957455,45.5641667 C44.0058636,45.7615751 44.0361186,45.9713183 44.0482207,46.1934028 C44.0603229,46.4154872 44.0663739,46.6252305 44.0663739,46.8226389 L44.0663739,50.8801981 L44.0663739,50.8801981 Z M24.5698874,59.0002083 C24.5698874,59.2469688 24.4609696,59.4196986 24.2431306,59.5184028 C24.0252917,59.617107 23.819558,59.6664583 23.6259234,59.6664583 L22.8997973,59.5924306 C22.7787757,59.5924306 22.7182658,59.6664576 22.7182658,59.8145139 L22.6819595,60.2586806 C22.7061638,60.9249339 22.7182658,61.763907 22.7182658,62.775625 L22.7182658,65.6997222 C22.7182658,66.6867642 22.6880108,67.6552846 22.6275,68.6053125 C22.5669892,69.5553404 22.4278164,70.4066513 22.2099775,71.1592708 C21.9921386,71.9118903 21.683538,72.5164445 21.2841667,72.9729514 C20.8847953,73.4294583 20.3341552,73.6577083 19.6322297,73.6577083 C19.0271216,73.6577083 18.3917676,73.6268637 17.7261486,73.5651736 C17.0605297,73.5034835 16.4554307,73.3492605 15.9108333,73.1025 C15.366236,72.8557395 14.9184627,72.4917732 14.5675,72.0105903 C14.2165373,71.5294073 14.0410586,70.8816707 14.0410586,70.0673611 C14.0410586,69.2530515 14.1318234,68.4202473 14.3133559,67.5689236 C14.4948883,66.7175999 14.7550809,65.8909647 15.0939414,65.0889931 C15.432802,64.2870215 15.8382184,63.5220754 16.3102027,62.7941319 C16.782187,62.0661885 17.2965212,61.4184519 17.8532207,60.8509028 C18.1436726,60.5547902 18.4643751,60.2525131 18.8153378,59.9440625 C19.1663006,59.6356119 19.4749011,59.3826862 19.7411486,59.1852778 L19.7411486,59.1482639 C19.7895573,58.6300669 19.8258632,58.1118776 19.8500676,57.5936806 C19.8742719,57.0754835 19.8863739,56.5449564 19.8863739,56.0020833 C19.7653522,56.2241678 19.6201285,56.5264448 19.4506982,56.9089236 C19.2812679,57.2914024 19.0815852,57.6553686 18.8516441,58.0008333 C18.6217031,58.346298 18.3615105,58.6485751 18.0710586,58.9076736 C17.7806067,59.1667721 17.4538532,59.2963194 17.0907883,59.2963194 C16.8971537,59.2963194 16.727726,59.2593059 16.5825,59.1852778 C16.437274,59.1112496 16.2315404,59.0742361 15.9652928,59.0742361 C15.2875717,59.024884 14.7248296,58.8398164 14.2770495,58.5190278 C13.8292695,58.1982391 13.4783121,57.7540769 13.2241667,57.1865278 C12.9700213,56.6189786 12.7945425,55.9465664 12.6977252,55.1692708 C12.6009079,54.3919753 12.5525,53.5221576 12.5525,52.5597917 C12.5525,51.4000173 12.6190609,50.2032469 12.7521847,48.9694444 C12.8853085,47.735642 13.1212971,46.6067297 13.4601577,45.5826736 C13.7990182,44.5586176 14.2528425,43.7196445 14.8216441,43.0657292 C15.3904458,42.4118139 16.1105137,42.0848611 16.9818694,42.0848611 C17.0786867,42.0848611 17.2057575,42.1218746 17.3630856,42.1959028 C17.5204137,42.2699309 17.6898414,42.3501269 17.8713739,42.4364931 C18.0529063,42.5228592 18.234436,42.6092241 18.4159685,42.6955903 C18.5975009,42.7819565 18.7366737,42.8374767 18.833491,42.8621528 C19.3175775,42.960857 19.7653508,43.0842354 20.1768243,43.2322917 C20.5882979,43.380348 20.9392553,43.5715845 21.2297072,43.8060069 C21.5201591,44.0404294 21.7500968,44.3488754 21.919527,44.7313542 C22.0889573,45.1138329 22.1736712,45.5888398 22.1736712,46.1563889 C22.1736712,46.5512057 22.1434162,46.909003 22.0829054,47.2297917 C22.0223946,47.5505803 21.9921396,47.957729 21.9921396,48.45125 C21.9921396,48.6486584 22.0647515,48.7843746 22.2099775,48.8584028 C22.3552034,48.9324309 22.5185802,48.9941201 22.7001126,49.0434722 C22.8816451,49.0928243 23.0450218,49.1483446 23.1902477,49.2100347 C23.3354737,49.2717248 23.4080856,49.4012722 23.4080856,49.5986806 C23.4080856,49.6480327 23.3536267,49.7652421 23.2447072,49.9503125 C23.1357877,50.1353829 23.0692268,50.2525923 23.0450225,50.3019444 C22.9724095,50.4993528 22.9118996,50.8139677 22.863491,51.2457986 C22.8150823,51.6776295 22.7787764,52.1464674 22.7545721,52.6523264 C22.7303677,53.1581854 22.7122148,53.6763747 22.7001126,54.2069097 C22.6880105,54.7374448 22.6819595,55.2124516 22.6819595,55.6319444 L22.6819595,56.9089236 C22.6819595,57.4394587 22.6940614,57.877452 22.7182658,58.2229167 L22.863491,58.2229167 C22.9118996,58.2229167 22.9603076,58.2167477 23.0087162,58.2044097 C23.0571249,58.1920717 23.0934308,58.1859028 23.1176351,58.1859028 C23.3354741,58.1859028 23.6319726,58.2537609 24.0071396,58.3894792 C24.3823067,58.5251974 24.5698874,58.7287718 24.5698874,59.0002083 Z M19.9226802,47.5629167 C19.9226802,47.2914801 19.8984762,46.9830341 19.8500676,46.6375694 C19.8016589,46.2921048 19.716945,45.965152 19.5959234,45.6567014 C19.4749018,45.3482508 19.2994231,45.0891561 19.069482,44.8794097 C18.8395409,44.6696633 18.5551443,44.5647917 18.2162838,44.5647917 C17.7564016,44.5647917 17.3267813,44.7498593 16.9274099,45.12 C16.5280385,45.4901407 16.1770811,46.0144989 15.874527,46.6930903 C15.571973,47.3716816 15.3299333,48.1983169 15.1484009,49.1730208 C14.9668685,50.1477248 14.8761036,51.2519614 14.8761036,52.4857639 C14.8761036,53.0039609 14.8942566,53.5406569 14.9305631,54.0958681 C14.9668696,54.6510792 15.0273795,55.1507617 15.1120946,55.5949306 C15.1968097,56.0390994 15.3299315,56.4092346 15.511464,56.7053472 C15.6929964,57.0014598 15.928985,57.1495139 16.2194369,57.1495139 C16.7277278,57.1495139 17.1755011,56.9274328 17.5627703,56.4832639 C17.9500395,56.039095 18.270742,55.4900611 18.5248874,54.8361458 C18.7790328,54.1822305 18.9726645,53.5036493 19.1057883,52.8003819 C19.2389121,52.0971145 19.317575,51.4863915 19.3417793,50.9681944 C19.3659836,50.252589 19.4022895,49.7652444 19.4506982,49.5061458 C19.4991068,49.2470473 19.5475148,49.0804865 19.5959234,49.0064583 C19.7411494,48.8090499 19.8319142,48.574631 19.8682207,48.3031944 C19.9045272,48.0317579 19.9226802,47.7850011 19.9226802,47.5629167 Z M19.777455,60.44375 C19.2207555,60.8385668 18.6943193,61.3937696 18.1981306,62.109375 C17.701942,62.8249804 17.2723216,63.6022643 16.9092568,64.44125 C16.5461919,65.2802357 16.2617953,66.1315466 16.0560586,66.9952083 C15.8503218,67.8588701 15.747455,68.636154 15.747455,69.3270833 C15.747455,69.5738438 15.7716589,69.8452763 15.8200676,70.1413889 C15.8684762,70.4375015 15.9471391,70.7151029 16.0560586,70.9742014 C16.164978,71.2332999 16.3223038,71.4492121 16.5280405,71.6219444 C16.7337773,71.7946768 16.9818679,71.8810417 17.2723198,71.8810417 C17.7806106,71.8810417 18.198129,71.6651295 18.5248874,71.2332986 C18.8516458,70.8014677 19.1057874,70.2894474 19.2873198,69.6972222 C19.4688523,69.104997 19.5898721,68.5004429 19.6503829,67.8835417 C19.7108937,67.2666404 19.7411486,66.7731269 19.7411486,66.4029861 L19.7411486,66.0698611 C19.7411486,65.9218048 19.7471996,65.6380345 19.7593018,65.2185417 C19.771404,64.7990488 19.777455,64.2130014 19.777455,63.4603819 C19.777455,62.7077624 19.777455,61.7022285 19.777455,60.44375 Z M35.9700676,52.3377083 C35.9700676,52.9546096 35.8611497,53.6455286 35.6433108,54.4104861 C35.4254719,55.1754436 35.0866164,55.8848694 34.6267342,56.5387847 C34.1668521,57.1927 33.579906,57.7417339 32.8658784,58.1859028 C32.1518508,58.6300717 31.2986611,58.8521528 30.3062838,58.8521528 C29.3623151,58.8521528 28.5635843,58.679423 27.9100676,58.3339583 C27.2565508,57.9884936 26.7180126,57.5196557 26.2944369,56.9274306 C25.8708612,56.3352054 25.5683117,55.6381174 25.3867793,54.8361458 C25.2052468,54.0341742 25.114482,53.1890322 25.114482,52.3006944 C25.114482,51.4370327 25.2112978,50.4870191 25.4049324,49.450625 C25.598567,48.4142309 25.9011166,47.4457105 26.3125901,46.5450347 C26.7240636,45.6443589 27.2444488,44.8917507 27.8737613,44.2871875 C28.5030737,43.6826243 29.2654985,43.3803472 30.1610586,43.3803472 C30.5967364,43.3803472 31.0082038,43.472881 31.395473,43.6579514 C31.7827422,43.8430218 32.1215976,44.0836096 32.4120495,44.3797222 C32.7025015,44.6758348 32.9324391,45.0212943 33.1018694,45.4161111 C33.2712996,45.8109279 33.3681155,46.2180766 33.3923198,46.6375694 L33.4286261,47.1557639 C33.4286261,47.7479891 33.3318103,48.3957257 33.1381757,49.0989931 C32.9445411,49.8022605 32.6661955,50.456166 32.3031306,51.0607292 C31.9400658,51.6652924 31.4922925,52.1711438 30.9597973,52.5782986 C30.4273021,52.9854534 29.8222031,53.1890278 29.144482,53.1890278 C29.0234604,53.1890278 28.8721856,53.1766899 28.6906532,53.1520139 C28.5091207,53.1273378 28.333642,53.0903243 28.1642117,53.0409722 L28.1642117,54.114375 C28.1642117,54.2871073 28.2186706,54.5338641 28.3275901,54.8546528 C28.4365096,55.1754414 28.5998863,55.4900563 28.8177252,55.7985069 C29.0355642,56.1069576 29.3199607,56.37839 29.6709234,56.6128125 C30.0218861,56.847235 30.4515065,56.9644444 30.9597973,56.9644444 C31.6617227,56.9644444 32.2365668,56.8225593 32.6843468,56.5387847 C33.1321269,56.2550102 33.5012373,55.8910439 33.7916892,55.446875 C34.0821411,55.0027061 34.3060277,54.5030236 34.4633559,53.9478125 C34.620684,53.3926014 34.7477548,52.8559054 34.8445721,52.3377083 C34.917185,51.9922436 34.9897969,51.7578247 35.0624099,51.6344444 C35.1350229,51.5110642 35.2560427,51.449375 35.425473,51.449375 C35.7885379,51.449375 35.9700676,51.6591183 35.9700676,52.0786111 L35.9700676,52.3377083 Z M31.6859234,46.6005556 C31.6859234,46.4031472 31.6314645,46.1934039 31.522545,45.9713194 C31.4136256,45.749235 31.2139429,45.6381944 30.923491,45.6381944 C30.4878131,45.6381944 30.1126517,45.8726134 29.7979955,46.3414583 C29.4833393,46.8103033 29.2231467,47.3469993 29.0174099,47.9515625 C28.8116731,48.5561257 28.6603984,49.1360042 28.5635811,49.6912153 C28.4667638,50.2464264 28.4183559,50.6103927 28.4183559,50.783125 L28.4183559,50.8941667 C28.4183559,51.1162511 28.4365088,51.2951498 28.4728153,51.4308681 C28.5091218,51.5665863 28.6361926,51.6344444 28.8540315,51.6344444 L29.0355631,51.6344444 C29.5196496,51.6344444 29.9311169,51.4493769 30.2699775,51.0792361 C30.608838,50.7090954 30.8811326,50.2649331 31.0868694,49.7467361 C31.2926061,49.2285391 31.4438809,48.698012 31.5406982,48.1551389 C31.6375155,47.6122658 31.6859234,47.1681036 31.6859234,46.8226389 L31.6859234,46.6005556 Z M48.2779054,40.9004167 C48.2779054,41.073149 48.1931915,41.2150342 48.0237613,41.3260764 C47.854331,41.4371186 47.6667503,41.5173146 47.4610135,41.5666667 C47.2552767,41.6160188 47.0555941,41.6530323 46.8619595,41.6777083 C46.6683249,41.7023844 46.547305,41.7147222 46.4988964,41.7147222 C45.9906056,41.7147222 45.4883734,41.5666681 44.9921847,41.2705556 C44.495996,40.974443 44.0421717,40.5056051 43.6306982,39.8640278 C43.5822895,39.7899996 43.5096777,39.6912969 43.4128604,39.5679167 C43.3160431,39.4445364 43.2676351,39.3581715 43.2676351,39.3088194 C43.2676351,39.1854392 43.3584,39.0743986 43.5399324,38.9756944 C43.7214649,38.8769902 43.9271986,38.7782875 44.1571396,38.6795833 C44.3870807,38.5808791 44.6049164,38.5068521 44.8106532,38.4575 C45.0163899,38.4081479 45.1555627,38.3834722 45.2281757,38.3834722 C45.7122622,38.3834722 46.1902904,38.5068506 46.6622748,38.7536111 C47.1342591,39.0003716 47.5154715,39.4568717 47.8059234,40.123125 C47.8543321,40.1971531 47.9450969,40.3267005 48.0782207,40.5117708 C48.2113445,40.6968412 48.2779054,40.8263885 48.2779054,40.9004167 Z M73.2929505,40.9004167 C73.2929505,41.073149 73.2082366,41.2150342 73.0388063,41.3260764 C72.869376,41.4371186 72.6817953,41.5173146 72.4760586,41.5666667 C72.2703218,41.6160188 72.0706391,41.6530323 71.8770045,41.6777083 C71.6833699,41.7023844 71.5623501,41.7147222 71.5139414,41.7147222 C71.0056506,41.7147222 70.5034184,41.5666681 70.0072297,41.2705556 C69.5110411,40.974443 69.0572168,40.5056051 68.6457432,39.8640278 C68.5973346,39.7899996 68.5247227,39.6912969 68.4279054,39.5679167 C68.3310881,39.4445364 68.2826802,39.3581715 68.2826802,39.3088194 C68.2826802,39.1854392 68.373445,39.0743986 68.5549775,38.9756944 C68.7365099,38.8769902 68.9422436,38.7782875 69.1721847,38.6795833 C69.4021258,38.5808791 69.6199614,38.5068521 69.8256982,38.4575 C70.031435,38.4081479 70.1706077,38.3834722 70.2432207,38.3834722 C70.7273072,38.3834722 71.2053355,38.5068506 71.6773198,38.7536111 C72.1493042,39.0003716 72.5305166,39.4568717 72.8209685,40.123125 C72.8693771,40.1971531 72.960142,40.3267005 73.0932658,40.5117708 C73.2263896,40.6968412 73.2929505,40.8263885 73.2929505,40.9004167 Z M83.3497973,47.5629167 C83.3497973,47.2914801 83.3255933,46.9830341 83.2771847,46.6375694 C83.228776,46.2921048 83.1440622,45.965152 83.0230405,45.6567014 C82.9020189,45.3482508 82.7265402,45.0891561 82.4965991,44.8794097 C82.266658,44.6696633 81.9822615,44.5647917 81.6434009,44.5647917 C81.1835187,44.5647917 80.7538984,44.7498593 80.354527,45.12 C79.9551557,45.4901407 79.6041982,46.0144989 79.3016441,46.6930903 C78.9990901,47.3716816 78.7570505,48.1983169 78.575518,49.1730208 C78.3939856,50.1477248 78.3032207,51.2519614 78.3032207,52.4857639 C78.3032207,53.0039609 78.3213737,53.5406569 78.3576802,54.0958681 C78.3939867,54.6510792 78.4544966,55.1507617 78.5392117,55.5949306 C78.6239268,56.0390994 78.7570486,56.4092346 78.9385811,56.7053472 C79.1201135,57.0014598 79.3561022,57.1495139 79.6465541,57.1495139 C80.1548449,57.1495139 80.6026182,56.9274328 80.9898874,56.4832639 C81.3771566,56.039095 81.6978591,55.4900611 81.9520045,54.8361458 C82.2061499,54.1822305 82.3997816,53.5036493 82.5329054,52.8003819 C82.6660292,52.0971145 82.7446921,51.4863915 82.7688964,50.9681944 C82.7931007,50.252589 82.8294067,49.7652444 82.8778153,49.5061458 C82.926224,49.2470473 82.9746319,49.0804865 83.0230405,49.0064583 C83.1682665,48.8090499 83.2590313,48.574631 83.2953378,48.3031944 C83.3316443,48.0317579 83.3497973,47.7850011 83.3497973,47.5629167 Z M83.2045721,60.44375 C82.6478726,60.8385668 82.1214364,61.3937696 81.6252477,62.109375 C81.1290591,62.8249804 80.6994388,63.6022643 80.3363739,64.44125 C79.973309,65.2802357 79.6889124,66.1315466 79.4831757,66.9952083 C79.2774389,67.8588701 79.1745721,68.636154 79.1745721,69.3270833 C79.1745721,69.5738438 79.198776,69.8452763 79.2471847,70.1413889 C79.2955933,70.4375015 79.3742562,70.7151029 79.4831757,70.9742014 C79.5920951,71.2332999 79.7494209,71.4492121 79.9551577,71.6219444 C80.1608944,71.7946768 80.408985,71.8810417 80.6994369,71.8810417 C81.2077278,71.8810417 81.6252461,71.6651295 81.9520045,71.2332986 C82.2787629,70.8014677 82.5329045,70.2894474 82.7144369,69.6972222 C82.8959694,69.104997 83.0169892,68.5004429 83.0775,67.8835417 C83.1380108,67.2666404 83.1682658,66.7731269 83.1682658,66.4029861 L83.1682658,66.0698611 C83.1682658,65.9218048 83.1743168,65.6380345 83.1864189,65.2185417 C83.1985211,64.7990488 83.2045721,64.2130014 83.2045721,63.4603819 L83.2045721,60.44375 Z M116.279617,56.779375 C116.279617,56.9274313 116.140444,57.0939921 115.862095,57.2790625 C115.583745,57.4641329 115.263042,57.6368626 114.899977,57.7972569 C114.536913,57.9576513 114.185955,58.0871986 113.847095,58.1859028 C113.508234,58.284607 113.266194,58.3339583 113.120968,58.3339583 C112.588473,58.3339583 112.110445,58.2167489 111.686869,57.9823264 C111.263294,57.7479039 110.821571,57.5319917 110.361689,57.3345833 C110.434302,57.2605552 110.470608,57.1618525 110.470608,57.0384722 C110.470608,56.939768 110.397996,56.865741 110.25277,56.8163889 L110.25277,56.6313194 C110.25277,56.3352069 110.379841,56.0637744 110.633986,55.8170139 C110.888132,55.5702534 111.190681,55.3605101 111.541644,55.1877778 C111.892607,55.0150454 112.255666,54.8854981 112.630833,54.7991319 C113.006,54.7127658 113.314601,54.6695833 113.556644,54.6695833 C113.774483,54.6695833 114.034676,54.7312725 114.33723,54.8546528 C114.639784,54.978033 114.936282,55.1445939 115.226734,55.3543403 C115.517186,55.5640867 115.765277,55.7923367 115.971014,56.0390972 C116.17675,56.2858577 116.279617,56.5326145 116.279617,56.779375 Z M121.580338,40.9004167 C121.580338,41.073149 121.495624,41.2150342 121.326194,41.3260764 C121.156763,41.4371186 120.969183,41.5173146 120.763446,41.5666667 C120.557709,41.6160188 120.358026,41.6530323 120.164392,41.6777083 C119.970757,41.7023844 119.849737,41.7147222 119.801329,41.7147222 C119.293038,41.7147222 118.790806,41.5666681 118.294617,41.2705556 C117.798428,40.974443 117.344604,40.5056051 116.933131,39.8640278 C116.884722,39.7899996 116.81211,39.6912969 116.715293,39.5679167 C116.618475,39.4445364 116.570068,39.3581715 116.570068,39.3088194 C116.570068,39.1854392 116.660832,39.0743986 116.842365,38.9756944 C117.023897,38.8769902 117.229631,38.7782875 117.459572,38.6795833 C117.689513,38.5808791 117.907349,38.5068521 118.113086,38.4575 C118.318822,38.4081479 118.457995,38.3834722 118.530608,38.3834722 C119.014695,38.3834722 119.492723,38.5068506 119.964707,38.7536111 C120.436692,39.0003716 120.817904,39.4568717 121.108356,40.123125 C121.156765,40.1971531 121.247529,40.3267005 121.380653,40.5117708 C121.513777,40.6968412 121.580338,40.8263885 121.580338,40.9004167 Z M132.145473,50.6350694 C132.145473,50.5363652 132.139422,50.3142841 132.12732,49.9688194 C132.115218,49.6233548 132.091014,49.216206 132.054707,48.7473611 C132.018401,48.2785162 131.957891,47.7911715 131.873176,47.2853125 C131.788461,46.7794535 131.667441,46.3167845 131.510113,45.8972917 C131.352784,45.4777988 131.153102,45.1261704 130.911059,44.8423958 C130.669015,44.5586213 130.366466,44.4167361 130.003401,44.4167361 C129.640336,44.4167361 129.289379,44.5647902 128.950518,44.8609028 C128.611657,45.1570154 128.309108,45.5394884 128.04286,46.0083333 C127.776613,46.4771783 127.564828,47.0077054 127.4075,47.5999306 C127.250172,48.1921557 127.171509,48.7720342 127.171509,49.3395833 C127.171509,50.3266253 127.365141,51.0483889 127.75241,51.5048958 C128.139679,51.9614027 128.805288,52.1896528 129.749257,52.1896528 C130.451182,52.1896528 131.026026,52.0786122 131.473806,51.8565278 C131.921586,51.6344433 132.145473,51.4617136 132.145473,51.3383333 L132.145473,50.6350694 Z M131.963941,53.6702083 C131.67349,53.8676167 131.274124,54.0156708 130.765833,54.114375 C130.257543,54.2130792 129.833973,54.2624306 129.495113,54.2624306 C128.841596,54.2624306 128.339364,54.2130792 127.988401,54.114375 C127.637438,54.0156708 127.256226,53.8182654 126.844752,53.5221528 L126.808446,54.2994444 C126.808446,54.570881 126.844752,54.8546513 126.917365,55.1507639 C126.989978,55.4468765 127.104947,55.718309 127.262275,55.9650694 C127.419603,56.2118299 127.64349,56.4154043 127.933941,56.5757986 C128.224393,56.7361929 128.587453,56.8163889 129.023131,56.8163889 C129.555626,56.8163889 130.00945,56.7115173 130.384617,56.5017708 C130.759784,56.2920244 131.062334,56.0267609 131.292275,55.7059722 C131.522216,55.3851836 131.691644,55.0397241 131.800563,54.6695833 C131.909483,54.2994426 131.963941,53.9663209 131.963941,53.6702083 Z" fill="#E74C3C"></path>
                    <path d="M48.1428571,40.552795 C48.1428571,40.7267089 48.0559015,40.8695647 47.8819876,40.9813665 C47.7080737,41.0931683 47.515529,41.1739128 47.3043478,41.2236025 C47.0931666,41.2732922 46.8881998,41.3105589 46.689441,41.3354037 C46.4906822,41.3602486 46.3664599,41.3726708 46.3167702,41.3726708 C45.7950284,41.3726708 45.2795057,41.223604 44.7701863,40.9254658 C44.260867,40.6273277 43.7950332,40.1552827 43.3726708,39.5093168 C43.3229811,39.4347822 43.2484477,39.3354043 43.1490683,39.2111801 C43.0496889,39.0869559 43,39.0000002 43,38.9503106 C43,38.8260863 43.0931668,38.7142862 43.2795031,38.6149068 C43.4658394,38.5155275 43.6770175,38.4161496 43.9130435,38.3167702 C44.1490695,38.2173908 44.3726698,38.1428574 44.5838509,38.0931677 C44.7950321,38.043478 44.9378878,38.0186335 45.0124224,38.0186335 C45.5093193,38.0186335 45.9999976,38.1428559 46.484472,38.3913043 C46.9689465,38.6397528 47.360247,39.0993755 47.6583851,39.7701863 C47.7080748,39.8447209 47.8012416,39.9751543 47.9378882,40.1614907 C48.0745348,40.347827 48.1428571,40.4782605 48.1428571,40.552795 Z M51.9440994,51.8447205 C51.8695648,52.4409968 51.7329202,53.0621086 51.5341615,53.7080745 C51.3354027,54.3540405 51.0559024,54.9565189 50.6956522,55.515528 C50.3354019,56.074537 49.8819903,56.5341597 49.3354037,56.8944099 C48.7888171,57.2546602 48.1180164,57.4347826 47.3229814,57.4347826 C46.7018602,57.4347826 46.0683262,57.2236046 45.4223602,56.8012422 C44.7763943,56.354035 44.3354049,55.7701899 44.0993789,55.0496894 C43.8633529,54.3291889 43.7453416,53.6335437 43.7453416,52.9627329 C43.7453416,52.7639742 43.7577639,52.4658405 43.7826087,52.068323 C43.8074535,51.6708055 43.8198758,51.1863383 43.8198758,50.6149068 L43.8198758,46.515528 C43.8198758,46.3167692 43.8136647,46.1055912 43.8012422,45.8819876 C43.7888198,45.658384 43.7577642,45.447206 43.7080745,45.2484472 C43.6832297,45.1490678 43.6397519,45.0372677 43.5776398,44.9130435 C43.5155276,44.7888193 43.484472,44.7018636 43.484472,44.6521739 C43.484472,44.5527945 43.5465832,44.47205 43.6708075,44.4099379 C43.7950317,44.3478258 43.9316763,44.304348 44.0807453,44.2795031 C44.2298144,44.2546583 44.3726701,44.242236 44.5093168,44.242236 L44.7142857,44.242236 C44.7888202,44.242236 44.9627316,44.2484471 45.2360248,44.2608696 C45.5093181,44.273292 45.7950296,44.3167698 46.0931677,44.3913043 C46.3913058,44.4658389 46.6583839,44.5838501 46.8944099,44.7453416 C47.130436,44.9068331 47.2484472,45.1366445 47.2484472,45.4347826 C47.273292,45.5093171 47.2298142,45.6459617 47.1180124,45.8447205 C47.0062106,46.0434793 46.9006216,46.3913019 46.8012422,46.8881988 C46.7763974,47.0869575 46.7515529,47.2670799 46.7267081,47.4285714 C46.7018632,47.5900629 46.6770188,47.7701853 46.6521739,47.9689441 C46.6273291,48.1677029 46.6024846,48.4099365 46.5776398,48.6956522 C46.5527949,48.9813679 46.5279504,49.3478239 46.5031056,49.7950311 L46.5031056,52.0310559 C46.5031056,52.4285734 46.5155278,52.8322961 46.5403727,53.242236 C46.5652175,53.652176 46.6211176,54.024843 46.7080745,54.3602484 C46.7950315,54.6956539 46.9378872,54.968943 47.136646,55.1801242 C47.3354047,55.3913054 47.5962717,55.4968944 47.9192547,55.4968944 C48.3913067,55.4968944 48.7639738,55.3602498 49.0372671,55.0869565 C49.3105604,54.8136632 49.5217384,54.5776407 49.6708075,54.378882 C49.9441007,54.0062093 50.1552788,53.5403755 50.3043478,52.9813665 C50.4534169,52.4223575 50.5900615,51.8447235 50.7142857,51.2484472 L50.7888199,50.8757764 C50.8633544,50.5031037 51.0869547,50.3167702 51.4596273,50.3167702 C51.8323,50.3167702 52.0186335,50.5776371 52.0186335,51.0993789 L52.0186335,51.2857143 L51.9440994,51.8447205 Z M52.0559006,51.0621118 C52.0807455,49.7950247 52.1180122,48.5031122 52.1677019,47.1863354 C52.2173916,45.8695586 52.2670805,44.6521795 52.3167702,43.5341615 C52.3167702,43.3354027 52.1180144,43.1987581 51.7204969,43.1242236 C51.3229794,43.0496891 50.8757789,42.9751557 50.378882,42.9006211 C49.8819851,42.8260866 49.4347846,42.7080753 49.0372671,42.5465839 C48.6397496,42.3850924 48.4409938,42.1180143 48.4409938,41.7453416 C48.4409938,41.4223586 48.7639719,41.2360251 49.4099379,41.1863354 C50.0559039,41.1366457 51.012416,41.1118012 52.2795031,41.1118012 C52.3788825,41.1118012 52.4472048,40.9627344 52.484472,40.6645963 C52.5217393,40.3664581 52.5465838,39.9875799 52.5590062,39.5279503 C52.5714286,39.0683207 52.5838509,38.5776424 52.5962733,38.0559006 C52.6086957,37.5341589 52.6273291,37.0434806 52.6521739,36.5838509 C52.6770188,36.1242213 52.7204966,35.7453431 52.7826087,35.447205 C52.8447208,35.1490668 52.9254653,35 53.0248447,35 C53.1490689,35 53.3726692,35.0248445 53.6956522,35.0745342 C54.0186352,35.1242239 54.3540355,35.1925461 54.7018634,35.2795031 C55.0496912,35.3664601 55.354036,35.4720491 55.6149068,35.5962733 C55.8757777,35.7204975 56.0062112,35.8571421 56.0062112,36.0062112 L55.5962733,40.8509317 C55.5962733,41.0000007 55.7267068,41.1055898 55.9875776,41.1677019 C56.2484485,41.229814 56.5838489,41.2670807 56.9937888,41.2795031 C57.4037288,41.2919255 57.838507,41.2981366 58.2981366,41.2981366 C58.7577663,41.2981366 59.1925445,41.3354034 59.6024845,41.4099379 C60.0124244,41.4844724 60.3478248,41.6024837 60.6086957,41.7639752 C60.8695665,41.9254666 61,42.1677002 61,42.4906832 C61,42.5403729 60.9751555,42.6211175 60.9254658,42.7329193 C60.8757761,42.8447211 60.813665,42.9006211 60.7391304,42.9006211 C60.6894407,42.9006211 60.6211184,42.8633544 60.5341615,42.7888199 C60.4472045,42.7142853 60.2173932,42.6770186 59.8447205,42.6770186 C59.7453411,42.6770186 59.4720519,42.6894409 59.0248447,42.7142857 C58.5776375,42.7391306 58.1055925,42.7763973 57.6086957,42.826087 C57.1117988,42.8757766 56.6583871,42.9316767 56.2484472,42.9937888 C55.8385073,43.0559009 55.6086959,43.1366455 55.5590062,43.2360248 C55.5341614,43.2857145 55.5031058,43.5776371 55.4658385,44.1118012 C55.4285712,44.6459654 55.3913045,45.3478217 55.3540373,46.2173913 C55.31677,47.0869609 55.2857144,48.0869509 55.2608696,49.2173913 C55.2360247,50.3478317 55.2236025,51.5341553 55.2236025,52.7763975 C55.2236025,53.2484496 55.248447,53.7080723 55.2981366,54.1552795 C55.3478263,54.6024867 55.4223598,55.0062094 55.5217391,55.3664596 C55.6211185,55.7267099 55.751552,56.0186324 55.9130435,56.242236 C56.074535,56.4658396 56.2670796,56.5776398 56.4906832,56.5776398 C56.8136662,56.5776398 57.1117999,56.4409952 57.3850932,56.1677019 C57.6583865,55.8944086 57.9068312,55.5217415 58.1304348,55.0496894 C58.3540384,54.5776374 58.5527942,54.0434812 58.7267081,53.447205 C58.900622,52.8509287 59.0496888,52.2422391 59.173913,51.621118 C59.2484476,51.2484453 59.3354032,50.9813673 59.4347826,50.8198758 C59.534162,50.6583843 59.6832288,50.5776398 59.8819876,50.5776398 C60.0559015,50.5776398 60.2111794,50.6335398 60.3478261,50.7453416 C60.4844727,50.8571434 60.552795,51.1117993 60.552795,51.5093168 C60.552795,51.7577652 60.5403728,51.9192543 60.515528,51.9937888 C60.4409934,52.440996 60.2981377,53.0558967 60.0869565,53.8385093 C59.8757753,54.6211219 59.5900639,55.3913006 59.2298137,56.1490683 C58.8695634,56.9068361 58.428574,57.5714257 57.9068323,58.1428571 C57.3850906,58.7142886 56.776401,59 56.0807453,59 C55.4099345,59 54.8260894,58.8074553 54.3291925,58.4223602 C53.8322957,58.0372652 53.4161507,57.503109 53.0807453,56.8198758 C52.7453399,56.1366425 52.4906841,55.3291972 52.3167702,54.3975155 C52.1428563,53.4658339 52.0559006,52.4658439 52.0559006,51.3975155 L52.0559006,51.0621118 Z" fill="#FFCF0F"></path>
                </g>
            </g>
        </g>
    </g>
</svg>