<?xml version="1.0" encoding="UTF-8" standalone="no"?>
<svg width="147px" height="131px" viewBox="0 0 147 131" version="1.1" xmlns="http://www.w3.org/2000/svg" xmlns:xlink="http://www.w3.org/1999/xlink" xmlns:sketch="http://www.bohemiancoding.com/sketch/ns">
    <!-- Generator: Sketch 3.0.3 (7891) - http://www.bohemiancoding.com/sketch -->
    <title>Header</title>
    <desc>Created with Sketch.</desc>
    <defs></defs>
    <g stroke="none" stroke-width="1" fill="none" fill-rule="evenodd" sketch:type="MSPage">
        <g sketch:type="MSArtboardGroup" transform="translate(-438.000000, -214.000000)">
            <g sketch:type="MSLayerGroup" transform="translate(439.000000, 215.000000)">
                <g>
                    <path d="M31.9058739,-0.315482517 C27.0719086,-0.555577368 22.4744521,0.2379276 18.3244903,1.90326635 C14.1064685,3.59584991 10.3937926,6.17388966 7.39915032,9.43986075 C4.38579147,12.7245626 2.13470522,16.6716539 0.843265714,21.0495536 C-0.441367787,25.4070197 -0.761250036,30.1408047 0.0486645949,35.0125166 L8.74503787,87.2987045 C9.40692188,91.2730405 10.9740046,94.8250821 13.2148818,97.8288219 C15.4064156,100.771261 18.2326093,103.175615 21.4688648,104.949933 C24.6285527,106.681681 28.1778845,107.810638 31.9177844,108.256771 C35.5709078,108.692688 39.4145992,108.478135 43.2787088,107.541595 L50.3246257,105.833686 C50.7849821,105.900605 51.3862216,105.732004 51.3214342,105.982089 C50.6282038,108.658014 49.8727229,111.28682 49.0588957,113.867205 C48.1724135,116.678528 47.2161698,119.435362 46.1935675,122.132598 C45.1726667,124.824725 44.0837059,127.46066 42.930088,130.0387 C46.4862257,127.351681 49.8007503,124.494382 52.8515422,121.500859 C55.8734085,118.536284 58.6519602,115.423564 61.1633762,112.191649 C63.6611801,108.978465 67.2294801,103.107957 67.8206469,102.105137 C68.4118137,101.102317 69.7435092,101.176107 69.7421589,101.125443 L124.795936,87.7737858 C127.092963,87.2169701 129.279392,86.1476114 131.273551,84.6985283 C133.248994,83.2630676 135.047481,81.4461796 136.590743,79.3653576 C138.127199,77.2930496 139.418638,74.9448879 140.381688,72.4332573 C141.346439,69.9148156 141.987905,67.2141742 142.212503,64.4386096 L145.067622,29.1702085 C145.324549,25.9978915 145.113563,22.9515816 144.501023,20.1470694 C143.879975,17.2982844 142.84376,14.6861887 141.46044,12.4453034 C140.051597,10.1618481 138.278632,8.2581173 136.218114,6.88566021 C134.121864,5.48084991 131.721046,4.63455813 129.10754,4.50514531 L31.9058739,-0.315482517 Z" fill="#FFFFFF" sketch:type="MSShapeGroup"></path>
                    <text sketch:type="MSTextLayer" font-family="Billabong" font-size="32.5" font-weight="normal" fill="#E74C3C">
                        <tspan x="11.4721102" y="55.4938272">get it right.io</tspan>
                    </text>
                </g>
            </g>
        </g>
    </g>
</svg>