<?xml version="1.0" encoding="UTF-8" standalone="no"?>
<svg width="68px" height="68px" viewBox="0 0 68 68" version="1.1" xmlns="http://www.w3.org/2000/svg" xmlns:xlink="http://www.w3.org/1999/xlink" xmlns:sketch="http://www.bohemiancoding.com/sketch/ns">
    <!-- Generator: Sketch 3.0.3 (7891) - http://www.bohemiancoding.com/sketch -->
    <title>Your_Icon</title>
    <desc>Created with Sketch.</desc>
    <defs></defs>
    <g stroke="none" stroke-width="1" fill="none" fill-rule="evenodd" sketch:type="MSPage">
        <g sketch:type="MSLayerGroup" transform="translate(-16.000000, -16.000000)" fill="#FFCF0F">
            <g transform="translate(16.000000, 16.000000)" sketch:type="MSShapeGroup">
                <path d="M31.806,53.596 C31.844,53.627 31.883,53.656 31.922,53.686 C32.543,54.149 33.241,54.399 34,54.4 C34.758,54.399 35.455,54.149 36.02,53.73 C36.126,53.648 36.158,53.625 36.189,53.598 C36.261,53.539 36.332,53.476 36.404,53.404 L51.509,38.299 C52.836,36.972 52.835,34.82 51.509,33.492 C50.182,32.163 48.03,32.162 46.701,33.492 L37.4,42.791 L37.399,16.999 C37.4,15.121 35.878,13.599 34.001,13.599 C32.124,13.599 30.601,15.121 30.601,17 L30.601,42.791 L21.302,33.492 C19.973,32.164 17.82,32.164 16.491,33.492 C15.162,34.82 15.164,36.972 16.491,38.3 L31.593,53.403 C31.669,53.476 31.739,53.539 31.806,53.596 Z"></path>
                <path d="M34,-0.001 C15.223,-0.001 0,15.223 -0.001,34 C0,52.777 15.223,67.999 34,68 C52.777,68 68,52.777 68.001,33.999 C68,15.223 52.778,-0.001 34,-0.001 L34,-0.001 Z M33.998,61.2 C18.977,61.2 6.8,49.021 6.798,34 C6.799,18.979 18.979,6.799 33.999,6.799 C49.022,6.799 61.2,18.979 61.199,33.999 C61.2,49.021 49.021,61.2 33.998,61.2 L33.998,61.2 Z"></path>
            </g>
        </g>
    </g>
</svg>